<?xml version="1.0" encoding="utf-8"?>
<!-- Generator: Adobe Illustrator 27.5.0, SVG Export Plug-In . SVG Version: 6.00 Build 0)  -->
<svg version="1.1" xmlns="http://www.w3.org/2000/svg" xmlns:xlink="http://www.w3.org/1999/xlink" x="0px" y="0px"
	 viewBox="0 0 3710 3710" style="enable-background:new 0 0 3710 3710;" xml:space="preserve">
<g id="Background">
	<g>
		<g>
			<rect style="fill:#FFFFFF;" width="3710" height="3710"/>
		</g>
	</g>
</g>
<g id="Illustration">
	<g>
		<path style="fill:#F4F7FA;" d="M488.558,1650.966c76.319-499.541,389.224-1113.263,1007.405-1177.489
			c0,0,469.351-57.09,932.029,29.435c274.599,51.352,515.383,204.217,667.74,423.922
			c152.359,219.705,203.252,487.606,141.488,743.016c-40.116,165.891-67.224,337.582-59.784,508.045
			c12.948,296.675,5.498,573.599-282.418,750.527c-257.076,157.978-580.61,297.308-889.266,321.712
			c-209.76,16.585-444.993-10.253-647.163-64.864C328.289,2906.954,412.239,2150.507,488.558,1650.966z"/>
		<g>
			<g>
				
					<linearGradient id="SVGID_1_" gradientUnits="userSpaceOnUse" x1="5520.3579" y1="1612.4333" x2="6096.1079" y2="1612.4333" gradientTransform="matrix(-1 0 0 1 7416.5581 0)">
					<stop  offset="0" style="stop-color:#AA80F9"/>
					<stop  offset="0.9964" style="stop-color:#6165D7"/>
				</linearGradient>
				<path style="fill:url(#SVGID_1_);" d="M1333.547,1144.448c40.232,69.27,158.744,110.078,114.596,208.616
					c-12.806,28.635-32.289,56.695-34.246,88.84c-2.014,32.98,25.843,56.089,44.579,79.688
					c19.627,24.692,33.873,50.621,36.146,82.681c3.395,47.342-27.657,80.35-49.989,118.482
					c-25.843,44.06-6.388,71.601,26.592,104.352c70.623,70.133,25.756,178.945,35.973,265.281
					c10.101,85.387,54.736,149.39,134.857,182.343c38.909,16.029,80.666,24.404,122.309,29.469
					c32.116,3.914,67.485,1.266,100.696,3.685c0.03,0.028,0.058,0.507,0.087,0.507c4.748,0.346,9.439,1.86,14.072,1.86h0.03
					c5.756,0,11.426,1.191,16.951,2.399c-53.614-11.8-163.549-152.363-146.282-229.088c17.267-76.753,61.413-132.502,9.065-207.843
					c-52.348-75.343,0.547-82.051,50.42-162.631c49.874-80.58,57.557-145.851-12.605-185.969
					c-70.134-40.089-66.048-40.478-14.246-237.037c51.831-196.587-138.138-346.387-253.252-374.475
					c-29.498-7.195-75.544-2.595-102.97,10.5c-4.863,2.331-9.583,4.947-14.217,7.912c-18.563,11.712-35.082,28.058-48.896,46.88
					C1330.669,1025.304,1303.272,1092.301,1333.547,1144.448z"/>
				
					<linearGradient id="SVGID_00000003072838279948612490000002903848602604641931_" gradientUnits="userSpaceOnUse" x1="5551.4976" y1="1620.9515" x2="6096.1079" y2="1620.9515" gradientTransform="matrix(-1 0 0 1 7416.5581 0)">
					<stop  offset="0" style="stop-color:#AA80F9"/>
					<stop  offset="0.9964" style="stop-color:#6165D7"/>
				</linearGradient>
				<path style="opacity:0.3;fill:url(#SVGID_00000003072838279948612490000002903848602604641931_);" d="M1333.547,1144.448
					c40.232,69.27,158.744,110.078,114.596,208.616c-12.806,28.635-32.289,56.695-34.246,88.84
					c-2.014,32.98,25.843,56.089,44.579,79.688c19.627,24.692,33.873,50.621,36.146,82.681
					c3.395,47.342-27.657,80.35-49.989,118.482c-25.843,44.06-6.388,71.601,26.592,104.352
					c70.623,70.133,25.756,178.945,35.973,265.281c10.101,85.387,54.736,149.39,134.857,182.343
					c38.909,16.029,80.666,24.404,122.309,29.469c32.116,3.914,67.485,1.266,100.696,3.685
					c-20.72-3.655-42.564-13.958-59.773-22.679c-55.687-28.288-113.185-63.888-142.224-121.36
					c-15.195-30.073-6.676-44.607,5.957-74.91c19.455-46.737,27.427-98.021,3.656-145.535
					c-23.311-46.592-60.091-91.285-58.738-146.109c2.101-84.407,111.834-142.31,57.011-229.596
					c-33.499-53.298-96.236-87.976-106.107-155.29c-6.706-45.585,22.131-83.43,36.059-124.497
					c14.822-43.657,15.138-90.911,7.425-136.065c-22.504-131.605-114.222-191.062-196.212-217.826
					c-18.563,11.712-35.082,28.059-48.896,46.881C1330.669,1025.304,1303.272,1092.301,1333.547,1144.448z"/>
			</g>
			<g>
				
					<linearGradient id="SVGID_00000136401062372870474940000012261794179307434635_" gradientUnits="userSpaceOnUse" x1="6214.4043" y1="1806.2002" x2="6962.7734" y2="1806.2002" gradientTransform="matrix(-1 0 0 1 7416.5581 0)">
					<stop  offset="0.0036" style="stop-color:#E38DDD"/>
					<stop  offset="1" style="stop-color:#9571F6"/>
				</linearGradient>
				<path style="fill:url(#SVGID_00000136401062372870474940000012261794179307434635_);" d="M1248.161,1821.696
					c65.557,27.542,117.963,53.701,103.661,135.951c-23.023,132.382,49.874,212.99,132.382,248.216
					c79.688,34.045,279.269,80.379,372.339-2.993c3.281-2.906,6.447-6.014,9.468-9.295
					c-21.153-3.136-117.043,74.882-149.649-126.569c-32.635-201.451-113.215-107.431-188.616-187.32
					c-75.429-79.861,52.378-156.096,27.829-360.252c-6.734-55.888-75.026-132.296-127.402-148.872
					c-45.356-14.332-95.633-8.403-141.965,10.446c-0.922,0.374-1.872,0.777-2.792,1.151
					c-60.781,25.527-114.425,73.185-140.699,126.252C1086.828,1621.368,1125.391,1770.125,1248.161,1821.696z"/>
				
					<linearGradient id="SVGID_00000078728806029556390370000010907519232500023444_" gradientUnits="userSpaceOnUse" x1="5560.0156" y1="1815.981" x2="6298.9165" y2="1815.981" gradientTransform="matrix(-1 0 0 1 7416.5581 0)">
					<stop  offset="0.0036" style="stop-color:#E38DDD"/>
					<stop  offset="1" style="stop-color:#9571F6"/>
				</linearGradient>
				<path style="opacity:0.3;fill:url(#SVGID_00000078728806029556390370000010907519232500023444_);" d="M1248.161,1821.696
					c65.557,27.542,117.963,53.701,103.661,135.951c-23.023,132.382,49.874,212.99,132.382,248.216
					c79.688,34.045,279.269,80.379,372.339-2.993c-39.599,13.986-87.517,23.858-128.467,19.08
					c-58.537-6.791-112.698-50.995-146.282-97.502c-27.743-38.42-45.356-83.055-72.666-121.763
					c-18.937-26.851-47.715-44.261-66.94-70.651c-18.706-25.67-30.764-56.607-41.182-86.394
					c-13.066-37.327-16.633-76.466-14.302-115.777c6.302-107.604,64.55-248.246-47.888-320.998
					c-17.122-11.08-35.916-19.799-55.399-26.707c-60.781,25.527-114.425,73.185-140.699,126.252
					C1086.828,1621.368,1125.391,1770.125,1248.161,1821.696z"/>
			</g>
		</g>
		<g>
			<g>
				<path style="fill:#FFFFFF;" d="M2802.983,2370.701c-3.34,1.931-6.597,3.956-9.897,5.888
					c-33.313-11.427-66.224-22.785-98.733-34.212c-21.525,11.427-42.648,22.886-63.368,34.313
					c-33.393-11.427-66.344-22.835-98.934-34.262c-21.567,11.427-42.729,22.861-63.49,34.287
					c-33.393-11.427-66.385-22.848-99.014-34.275c-21.525,11.427-42.687,22.855-63.448,34.281
					c-33.393-11.427-66.385-22.851-99.014-34.278c-21.565,11.427-42.729,22.853-63.488,34.279c-4.748-1.61-9.455-3.219-14.164-4.869
					c-28.564-9.777-56.85-19.593-84.852-29.41c-21.565,11.427-42.728,22.853-63.529,34.279
					c-33.393-11.427-66.385-22.852-99.014-34.279c-21.525,11.427-42.687,22.852-63.448,34.279
					c-33.393-11.427-66.424-22.852-99.055-34.279c-21.523,11.427-42.687,22.852-63.448,34.279c-6.88-2.374-13.76-4.977-20.598-7.351
					c-294.349-546.613,305.895-1094.675,3.862-1640.067h1166.772C3108.397,1274.698,2506.945,1823.645,2802.983,2370.701z"/>
				<g style="opacity:0.8;">
					<g>
						<g>
							
								<linearGradient id="SVGID_00000008855856824078018950000012074160262323430334_" gradientUnits="userSpaceOnUse" x1="2019.9202" y1="619.363" x2="2019.9202" y2="2045.7397">
								<stop  offset="0" style="stop-color:#AA80F9"/>
								<stop  offset="0.9964" style="stop-color:#6165D7"/>
							</linearGradient>
							<path style="fill:url(#SVGID_00000008855856824078018950000012074160262323430334_);" d="M2214.063,938.507
								c-16.101-11.847-74.519-23.693-74.534-23.701c-11.75,15.103-24.032,30.207-36.811,45.31c-48.561,0-97.124,0-145.683,0
								c-53.001-15.098-95.816-27.29-149.723-42.39c-1.605-0.413-6.021-1.3-8.736,0.542c-2.206,1.497-2.623,2.931-1.876,6.504
								c7.424,36.236,11.821,72.469,13.72,108.704c0.202,3.601,3.302,6.518,6.905,6.403c7.705-0.217,15.418-0.433,23.119-0.651
								c0.564-0.005-2.108-54.014,49.598-54.02c52.807,0.002,54.366,52.634,53.848,52.627c52.626,0,105.251,0,157.879,0
								c0.542,0.004-4.833-52.63,48.271-52.627c54.254-0.006,60.065,54.372,59.506,54.368c5.821,0,11.64,0,17.455,0
								c5.234-6.524,18.129-24.301,16.308-49.488c-0.466-6.866-1.833-20.785-12.245-35.052
								C2229.42,952.787,2224.065,945.846,2214.063,938.507z"/>
							
								<linearGradient id="SVGID_00000155863438304351542150000000787323820549237120_" gradientUnits="userSpaceOnUse" x1="1915.3854" y1="619.3604" x2="1915.3854" y2="2045.7434">
								<stop  offset="0" style="stop-color:#AA80F9"/>
								<stop  offset="0.9964" style="stop-color:#6165D7"/>
							</linearGradient>
							<path style="fill:url(#SVGID_00000155863438304351542150000000787323820549237120_);" d="M1822.639,904.657
								c0.621,0.017,94.246-49.802,164.28-49.1c9.051,28.385,16.032,56.77,21.213,85.153c-16.991,0-33.988,0-50.983,0
								C1912.642,928.693,1867.811,916.674,1822.639,904.657z"/>
							
								<linearGradient id="SVGID_00000124864019053894051650000017763434485052320407_" gradientUnits="userSpaceOnUse" x1="2063.3445" y1="619.3566" x2="2063.3445" y2="2045.7529">
								<stop  offset="0" style="stop-color:#AA80F9"/>
								<stop  offset="0.9964" style="stop-color:#6165D7"/>
							</linearGradient>
							<path style="fill:url(#SVGID_00000124864019053894051650000017763434485052320407_);" d="M2007.144,855.558
								c-0.562-0.004,51.235-3.253,112.406,51.118c-9.756,11.345-19.818,22.69-30.167,34.035c-20.571,0-41.147,0-61.722,0
								C2029.358,940.718,2008.012,854.858,2007.144,855.558z"/>
							
								<linearGradient id="SVGID_00000114765681345602171980000010240317606963627140_" gradientUnits="userSpaceOnUse" x1="1894.3115" y1="619.3619" x2="1894.3115" y2="2045.7389">
								<stop  offset="0" style="stop-color:#AA80F9"/>
								<stop  offset="0.9964" style="stop-color:#6165D7"/>
							</linearGradient>
							<path style="fill:url(#SVGID_00000114765681345602171980000010240317606963627140_);" d="M1859.926,1038.88
								c-0.882-18.986,13.007-34.388,32.004-34.387c18.995-0.004,35.882,15.398,36.77,34.387
								c0.896,18.993-14.542,34.387-33.491,34.388C1876.206,1073.263,1860.82,1057.873,1859.926,1038.88z"/>
							
								<linearGradient id="SVGID_00000016056500419047425180000009207223027529371547_" gradientUnits="userSpaceOnUse" x1="2154.4417" y1="619.3619" x2="2154.4417" y2="2045.7389">
								<stop  offset="0" style="stop-color:#AA80F9"/>
								<stop  offset="0.9964" style="stop-color:#6165D7"/>
							</linearGradient>
							<path style="fill:url(#SVGID_00000016056500419047425180000009207223027529371547_);" d="M2120.055,1038.88
								c-0.858-18.986,13.003-34.388,32.004-34.387c18.983-0.004,35.89,15.398,36.77,34.387
								c0.902,18.993-14.504,34.387-33.491,34.388C2136.335,1073.263,2120.956,1057.873,2120.055,1038.88z"/>
						</g>
						<g>
							
								<linearGradient id="SVGID_00000028317507314501881120000014589091467992354981_" gradientUnits="userSpaceOnUse" x1="2289.322" y1="440.9287" x2="3497.2427" y2="2578.8457">
								<stop  offset="0" style="stop-color:#AA80F9"/>
								<stop  offset="0.9964" style="stop-color:#6165D7"/>
							</linearGradient>
							<path style="fill:url(#SVGID_00000028317507314501881120000014589091467992354981_);" d="M2797.75,922.954
								c-160.934,0-321.868,0-482.802,0c-2.243-10.728-4.758-21.458-7.552-32.188c160.934,0,321.868,0,482.802,0
								C2792.988,901.496,2795.502,912.224,2797.75,922.954z"/>
							
								<linearGradient id="SVGID_00000166639496000012242400000005234451647958111115_" gradientUnits="userSpaceOnUse" x1="2269.5" y1="452.1274" x2="3477.4204" y2="2590.0439">
								<stop  offset="0" style="stop-color:#AA80F9"/>
								<stop  offset="0.9964" style="stop-color:#6165D7"/>
							</linearGradient>
							<path style="fill:url(#SVGID_00000166639496000012242400000005234451647958111115_);" d="M2808.598,991.352
								c-160.934,0-321.868,0-482.802,0c-1.181-10.73-2.591-21.458-4.257-32.188c160.934,0,321.868,0,482.802,0
								C2806.007,969.892,2807.417,980.622,2808.598,991.352z"/>
						</g>
					</g>
					<g>
						
							<linearGradient id="SVGID_00000183959058285486759400000010838787341400432267_" gradientUnits="userSpaceOnUse" x1="1842.0271" y1="693.6503" x2="3049.9478" y2="2831.5674">
							<stop  offset="0" style="stop-color:#AA80F9"/>
							<stop  offset="0.9964" style="stop-color:#6165D7"/>
						</linearGradient>
						<path style="fill:url(#SVGID_00000183959058285486759400000010838787341400432267_);" d="M2675.287,1763.834
							c-160.934,0-321.868,0-482.802,0c2.383-10.729,4.854-21.458,7.402-32.187c160.934,0,321.868,0,482.802,0
							C2680.141,1742.376,2677.67,1753.105,2675.287,1763.834z"/>
						
							<linearGradient id="SVGID_00000150070716019210500360000008219725992008301215_" gradientUnits="userSpaceOnUse" x1="1799.4601" y1="717.7004" x2="3007.3809" y2="2855.6174">
							<stop  offset="0" style="stop-color:#AA80F9"/>
							<stop  offset="0.9964" style="stop-color:#6165D7"/>
						</linearGradient>
						<path style="fill:url(#SVGID_00000150070716019210500360000008219725992008301215_);" d="M2660.706,1836.254
							c-160.934,0-321.868,0-482.802,0c1.916-10.729,3.947-21.458,6.088-32.187c160.932,0,321.866,0,482.802,0
							C2664.653,1814.797,2662.622,1825.525,2660.706,1836.254z"/>
						
							<linearGradient id="SVGID_00000016044020628598480810000002197355163292398730_" gradientUnits="userSpaceOnUse" x1="1440.9797" y1="920.2424" x2="2648.9004" y2="3058.1594">
							<stop  offset="0" style="stop-color:#AA80F9"/>
							<stop  offset="0.9964" style="stop-color:#6165D7"/>
						</linearGradient>
						<path style="fill:url(#SVGID_00000016044020628598480810000002197355163292398730_);" d="M2144.203,1763.834
							c-159.59,0-319.185,0-478.779,0c2.381-10.729,4.856-21.458,7.404-32.187c159.594,0,319.184,0,478.779,0
							C2149.059,1742.376,2146.583,1753.105,2144.203,1763.834z"/>
						
							<linearGradient id="SVGID_00000170979220970213698610000009853626749668871610_" gradientUnits="userSpaceOnUse" x1="1398.4131" y1="944.2911" x2="2606.3337" y2="3082.2083">
							<stop  offset="0" style="stop-color:#AA80F9"/>
							<stop  offset="0.9964" style="stop-color:#6165D7"/>
						</linearGradient>
						<path style="fill:url(#SVGID_00000170979220970213698610000009853626749668871610_);" d="M2129.624,1836.254
							c-159.594,0-319.184,0-478.779,0c1.915-10.729,3.947-21.458,6.088-32.187c159.59,0,319.184,0,478.779,0
							C2133.571,1814.797,2131.539,1825.525,2129.624,1836.254z"/>
					</g>
					
						<linearGradient id="SVGID_00000080925124616166639300000007624777838780940440_" gradientUnits="userSpaceOnUse" x1="1908.9906" y1="655.8123" x2="3116.9114" y2="2793.7292">
						<stop  offset="0" style="stop-color:#AA80F9"/>
						<stop  offset="0.9964" style="stop-color:#6165D7"/>
					</linearGradient>
					<path style="fill:url(#SVGID_00000080925124616166639300000007624777838780940440_);" d="M2737.366,1353.452
						c-307.115,0-614.233,0-921.349,0c5.186-22.799,9.991-45.598,14.286-68.397c307.116,0,614.235,0,921.349,0
						C2747.36,1307.855,2742.554,1330.653,2737.366,1353.452z"/>
					
						<linearGradient id="SVGID_00000001639270115378166050000000300923159529491102_" gradientUnits="userSpaceOnUse" x1="1796.1158" y1="719.5894" x2="3004.0354" y2="2857.5044">
						<stop  offset="0" style="stop-color:#AA80F9"/>
						<stop  offset="0.9964" style="stop-color:#6165D7"/>
					</linearGradient>
					<path style="fill:url(#SVGID_00000001639270115378166050000000300923159529491102_);" d="M2590.005,1534.503
						c-241.403,0-482.804,0-724.203,0c6.29-22.799,12.541-45.598,18.63-68.397c241.405,0,482.802,0,724.205,0
						C2602.55,1488.905,2596.291,1511.704,2590.005,1534.503z"/>
					
						<linearGradient id="SVGID_00000093173776642359229070000003441101904632728462_" gradientUnits="userSpaceOnUse" x1="1450.7314" y1="914.7297" x2="2658.6514" y2="3052.645">
						<stop  offset="0" style="stop-color:#AA80F9"/>
						<stop  offset="0.9964" style="stop-color:#6165D7"/>
					</linearGradient>
					<path style="fill:url(#SVGID_00000093173776642359229070000003441101904632728462_);" d="M2653.657,2258.707
						c-321.868,0.001-643.736,0.001-965.604,0c-22.266-67.057-32.902-134.113-35.216-201.168c321.868,0,643.736,0,965.604,0
						C2620.758,2124.594,2631.394,2191.651,2653.657,2258.707z"/>
					<g>
						<g>
							<g>
								
									<linearGradient id="SVGID_00000071521759897790101810000006007001698838881200_" gradientUnits="userSpaceOnUse" x1="1785.4126" y1="1148.2614" x2="1785.4126" y2="1160.3315">
									<stop  offset="0" style="stop-color:#AA80F9"/>
									<stop  offset="0.9964" style="stop-color:#6165D7"/>
								</linearGradient>
								<path style="fill:url(#SVGID_00000071521759897790101810000006007001698838881200_);" d="M1794.397,1160.332
									c-6.332,0-12.661,0-18.991,0c-3.507,0.001-6.1-2.537-5.819-6.035c0.253-3.489,3.31-6.035,6.805-6.035
									c6.33,0,12.659,0,18.991,0c3.483,0.002,6.143,2.538,5.854,6.035C1800.959,1157.789,1797.886,1160.333,1794.397,1160.332z"/>
							</g>
							<g>
								
									<linearGradient id="SVGID_00000173122044108304704700000014019977966642281134_" gradientUnits="userSpaceOnUse" x1="2307.6516" y1="1150.4313" x2="2307.6516" y2="1160.7869">
									<stop  offset="0" style="stop-color:#AA80F9"/>
									<stop  offset="0.9964" style="stop-color:#6165D7"/>
								</linearGradient>
								<path style="fill:url(#SVGID_00000173122044108304704700000014019977966642281134_);" d="M2782.908,1150.431h-37.98
									c-3.501,0-6.479,1.678-6.801,5.178c-0.281,3.46,2.334,5.178,5.795,5.178h37.98c3.499,0,6.558-1.717,6.839-5.178
									C2789.063,1152.109,2786.368,1150.431,2782.908,1150.431z M2706.946,1150.431h-37.98c-3.459,0-6.516,1.678-6.799,5.178
									c-0.281,3.46,2.334,5.178,5.793,5.178h37.98c3.501,0,6.56-1.717,6.841-5.178
									C2713.103,1152.109,2710.407,1150.431,2706.946,1150.431z M2630.985,1150.431h-37.98c-3.501,0-6.518,1.678-6.799,5.178
									c-0.322,3.46,2.334,5.178,5.793,5.178h37.98c3.501,0,6.558-1.717,6.84-5.178
									C2637.101,1152.109,2634.447,1150.431,2630.985,1150.431z M2555.025,1150.431h-37.98c-3.501,0-6.518,1.678-6.799,5.178
									c-0.322,3.46,2.334,5.178,5.793,5.178h37.98c3.501,0,6.558-1.717,6.841-5.178
									C2561.14,1152.109,2558.526,1150.431,2555.025,1150.431z M2479.064,1150.431h-37.982c-3.46,0-6.517,1.678-6.797,5.178
									c-0.322,3.46,2.332,5.178,5.791,5.178h37.982c3.501,0,6.597-1.717,6.839-5.178
									C2485.18,1152.109,2482.524,1150.431,2479.064,1150.431z M2403.104,1150.431h-37.982c-3.501,0-6.518,1.678-6.839,5.178
									c-0.283,3.46,2.373,5.178,5.833,5.178h37.982c3.499,0,6.597-1.717,6.838-5.178
									C2409.218,1152.109,2406.564,1150.431,2403.104,1150.431z M2327.142,1150.431h-37.98c-3.501,0-6.518,1.678-6.841,5.178
									c-0.24,3.46,2.334,5.178,5.835,5.178h37.98c3.501,0,6.56-1.717,6.84-5.178
									C2333.257,1152.109,2330.601,1150.431,2327.142,1150.431z M2251.181,1150.431h-37.98c-3.501,0-6.518,1.678-6.841,5.178
									c-0.281,3.46,2.373,5.178,5.835,5.178h37.98c3.501,0,6.558-1.717,6.839-5.178
									C2257.336,1152.109,2254.641,1150.431,2251.181,1150.431z M2175.18,1150.431h-37.98c-3.459,0-6.477,1.678-6.799,5.178
									c-0.281,3.46,2.373,5.178,5.835,5.178h37.98c3.499,0,6.558-1.717,6.839-5.178
									C2181.337,1152.109,2178.68,1150.431,2175.18,1150.431z M2099.219,1150.431h-37.98c-3.46,0-6.518,1.678-6.799,5.178
									c-0.242,3.46,2.373,5.178,5.833,5.178h37.98c3.462,0,6.56-1.717,6.841-5.178
									C2105.376,1152.109,2102.72,1150.431,2099.219,1150.431z M2023.259,1150.431h-37.98c-3.462,0-6.518,1.678-6.799,5.178
									c-0.283,3.46,2.332,5.178,5.833,5.178h37.98c3.462,0,6.558-1.717,6.841-5.178
									C2029.414,1152.109,2026.76,1150.431,2023.259,1150.431z M1947.299,1150.431h-37.982c-3.459,0-6.516,1.678-6.799,5.178
									c-0.281,3.46,2.334,5.178,5.835,5.178h37.98c3.46,0,6.558-1.717,6.84-5.178
									C1953.453,1152.109,1950.797,1150.431,1947.299,1150.431z M1871.336,1150.431h-37.98c-3.459,0-6.518,1.678-6.799,5.178
									c-0.281,3.46,2.373,5.178,5.835,5.178h37.98c3.46,0,6.558-1.717,6.839-5.178
									C1877.493,1152.109,1874.837,1150.431,1871.336,1150.431z"/>
							</g>
							<g>
								
									<linearGradient id="SVGID_00000018955937100602309530000013561245028868772770_" gradientUnits="userSpaceOnUse" x1="2833.0737" y1="1148.2614" x2="2833.0737" y2="1160.3315">
									<stop  offset="0" style="stop-color:#AA80F9"/>
									<stop  offset="0.9964" style="stop-color:#6165D7"/>
								</linearGradient>
								<path style="fill:url(#SVGID_00000018955937100602309530000013561245028868772770_);" d="M2842.06,1160.332
									c-6.332,0-12.661,0-18.991,0c-3.493,0.001-6.102-2.537-5.821-6.035c0.277-3.489,3.322-6.035,6.805-6.035
									c6.332,0,12.662,0,18.991,0c3.487,0.002,6.151,2.538,5.854,6.035C2848.621,1157.789,2845.556,1160.333,2842.06,1160.332z"/>
							</g>
						</g>
						<g>
							<g>
								
									<linearGradient id="SVGID_00000014630318539914974440000005162548156408593297_" gradientUnits="userSpaceOnUse" x1="1684.6501" y1="1606.9233" x2="1684.6501" y2="1618.9934">
									<stop  offset="0" style="stop-color:#AA80F9"/>
									<stop  offset="0.9964" style="stop-color:#6165D7"/>
								</linearGradient>
								<path style="fill:url(#SVGID_00000014630318539914974440000005162548156408593297_);" d="M1692.507,1618.993
									c-6.33,0-12.659,0-18.991,0c-3.493,0.005-5.646-2.539-4.693-6.035c0.957-3.495,4.465-6.039,7.974-6.035
									c6.332,0,12.661,0,18.991,0c3.477-0.011,5.654,2.537,4.685,6.035C1699.536,1616.454,1696.004,1618.989,1692.507,1618.993z"
									/>
							</g>
							<g>
								
									<linearGradient id="SVGID_00000178167734113122892500000013155851595493065858_" gradientUnits="userSpaceOnUse" x1="2206.9043" y1="1606.0751" x2="2206.9043" y2="1616.4305">
									<stop  offset="0" style="stop-color:#AA80F9"/>
									<stop  offset="0.9964" style="stop-color:#6165D7"/>
								</linearGradient>
								<path style="fill:url(#SVGID_00000178167734113122892500000013155851595493065858_);" d="M2683.33,1606.075h-38.021
									c-3.459,0-7,1.678-7.966,5.178c-0.925,3.461,1.206,5.178,4.707,5.178h37.98c3.501,0,7.041-1.717,7.966-5.178
									C2688.962,1607.753,2686.79,1606.075,2683.33,1606.075z M2607.329,1606.075h-37.98c-3.46,0-7.002,1.678-7.966,5.178
									c-0.925,3.461,1.206,5.178,4.707,5.178h37.98c3.501,0,7-1.717,7.966-5.178
									C2612.961,1607.753,2610.868,1606.075,2607.329,1606.075z M2531.368,1606.075h-37.982c-3.459,0-7,1.678-7.964,5.178
									c-0.927,3.461,1.206,5.178,4.707,5.178h37.98c3.46,0,7-1.717,7.966-5.178
									C2537,1607.753,2534.869,1606.075,2531.368,1606.075z M2455.408,1606.075h-37.982c-3.459,0-7,1.678-7.966,5.178
									c-0.925,3.461,1.208,5.178,4.709,5.178h37.978c3.462,0,7.002-1.717,7.968-5.178
									C2461.04,1607.753,2458.906,1606.075,2455.408,1606.075z M2379.445,1606.075h-37.98c-1.77,0-3.54,1.074-4.99,2.2
									c-1.406,1.086-2.493,2.75-2.976,4.48c-0.242,0.885-0.281,0.51-0.12,1.234c0.361,2.173,2.212,2.442,4.827,2.442h37.98
									c3.461,0,7.041-1.717,7.966-5.178C2385.078,1607.753,2382.946,1606.075,2379.445,1606.075z M2303.485,1606.075h-37.98
									c-3.461,0-7.041,1.678-7.966,5.178c-0.925,3.461,1.206,5.178,4.707,5.178h37.98c3.459,0,7.001-1.717,7.966-5.178
									C2309.117,1607.753,2306.986,1606.075,2303.485,1606.075z M2227.525,1606.075h-37.98c-3.461,0-7.041,1.678-7.968,5.178
									c-0.923,3.461,1.208,5.178,4.709,5.178h37.98c3.459,0,7-1.717,7.966-5.178
									C2233.157,1607.753,2231.023,1606.075,2227.525,1606.075z M2151.562,1606.075h-37.98c-3.459,0-7,1.678-7.966,5.178
									c-0.964,3.461,1.208,5.178,4.707,5.178h37.982c3.459,0,7.041-1.717,7.966-5.178
									C2157.197,1607.753,2155.063,1606.075,2151.562,1606.075z M2075.602,1606.075h-37.98c-3.459,0-7.041,1.678-7.966,5.178
									c-0.925,3.461,1.206,5.178,4.668,5.178h37.98c3.501,0,7.041-1.717,7.966-5.178
									C2081.236,1607.753,2079.063,1606.075,2075.602,1606.075z M1999.641,1606.075h-37.98c-3.501,0-7.041,1.678-7.966,5.178
									c-0.967,3.461,1.206,5.178,4.668,5.178h37.98c3.499,0,7.041-1.717,7.966-5.178
									C2005.274,1607.753,2003.142,1606.075,1999.641,1606.075z M1923.681,1606.075h-37.98c-3.501,0-7.001,1.678-7.966,5.178
									c-0.967,3.461,1.206,5.178,4.666,5.178h37.98c3.501,0,7.041-1.717,7.968-5.178
									C1929.313,1607.753,1927.182,1606.075,1923.681,1606.075z M1847.721,1606.075h-37.982c-3.499,0-7.041,1.678-7.966,5.178
									c-0.965,3.461,1.208,5.178,4.668,5.178h37.98c3.501,0,7.041-1.717,7.966-5.178
									C1853.353,1607.753,1851.18,1606.075,1847.721,1606.075z M1771.758,1606.075h-37.98c-3.501,0-7.041,1.678-7.966,5.178
									c-0.964,3.461,1.208,5.178,4.668,5.178h37.98c3.501,0,7.041-1.717,7.966-5.178
									C1777.391,1607.753,1775.218,1606.075,1771.758,1606.075z"/>
							</g>
							<g>
								
									<linearGradient id="SVGID_00000178167636456374683570000012153031951899923840_" gradientUnits="userSpaceOnUse" x1="2732.3093" y1="1606.9233" x2="2732.3093" y2="1618.9934">
									<stop  offset="0" style="stop-color:#AA80F9"/>
									<stop  offset="0.9964" style="stop-color:#6165D7"/>
								</linearGradient>
								<path style="fill:url(#SVGID_00000178167636456374683570000012153031951899923840_);" d="M2740.167,1618.993
									c-6.33,0-12.659,0-18.991,0c-3.495,0.005-5.648-2.539-4.691-6.035c0.965-3.495,4.477-6.039,7.972-6.035
									c6.33,0,12.659,0,18.991,0c3.507-0.011,5.636,2.537,4.688,6.035C2747.195,1616.454,2743.658,1618.989,2740.167,1618.993z"/>
							</g>
						</g>
						<g>
							<g>
								
									<linearGradient id="SVGID_00000076605862846148868610000006468909773319285167_" gradientUnits="userSpaceOnUse" x1="1617.5028" y1="1936.8381" x2="1617.5028" y2="1948.9082">
									<stop  offset="0" style="stop-color:#AA80F9"/>
									<stop  offset="0.9964" style="stop-color:#6165D7"/>
								</linearGradient>
								<path style="fill:url(#SVGID_00000076605862846148868610000006468909773319285167_);" d="M1626.469,1948.908
									c-6.332,0-12.661,0-18.991,0c-3.501-0.006-6.125-2.54-5.801-6.035c0.314-3.495,3.391-6.039,6.894-6.035
									c6.33,0,12.659,0,18.991,0c3.487,0,6.096,2.546,5.766,6.035C1633.013,1946.367,1629.956,1948.911,1626.469,1948.908z"/>
							</g>
							<g>
								
									<linearGradient id="SVGID_00000165943609070129004550000002809392293771641525_" gradientUnits="userSpaceOnUse" x1="2139.7544" y1="1934.0005" x2="2139.7544" y2="1944.356">
									<stop  offset="0" style="stop-color:#AA80F9"/>
									<stop  offset="0.9964" style="stop-color:#6165D7"/>
								</linearGradient>
								<path style="fill:url(#SVGID_00000165943609070129004550000002809392293771641525_);" d="M2615.092,1934h-37.978
									c-3.501,0-6.599,1.678-6.921,5.178c-0.281,3.46,2.334,5.178,5.833,5.178h37.982c3.459,0,6.516-1.717,6.839-5.178
									C2621.169,1935.678,2618.554,1934,2615.092,1934z M2539.132,1934h-37.98c-3.499,0-6.558,1.678-6.919,5.178
									c-0.322,3.46,2.292,5.178,5.833,5.178h37.98c3.42,0,6.518-1.717,6.841-5.178C2545.208,1935.678,2542.594,1934,2539.132,1934
									z M2463.171,1934h-37.98c-3.501,0-6.599,1.678-6.921,5.178c-0.322,3.46,2.375,5.178,5.795,5.178h37.98
									c3.499,0,6.558-1.717,6.88-5.178C2469.246,1935.678,2466.631,1934,2463.171,1934z M2387.211,1934h-37.98
									c-3.501,0-6.599,1.678-6.921,5.178c-0.322,3.46,2.373,5.178,5.793,5.178h37.98c3.501,0,6.56-1.717,6.88-5.178
									C2393.246,1935.678,2390.671,1934,2387.211,1934z M2311.251,1934h-37.982c-3.499,0-6.597,1.678-6.919,5.178
									c-0.322,3.46,2.334,5.178,5.793,5.178h37.98c3.462,0,6.558-1.717,6.88-5.178C2317.286,1935.678,2314.71,1934,2311.251,1934z
									 M2235.288,1934h-38.02c-3.461,0-6.558,1.678-6.88,5.178c-0.283,3.46,2.334,5.178,5.793,5.178h37.98
									c3.501,0,6.558-1.717,6.88-5.178C2241.365,1935.678,2238.75,1934,2235.288,1934z M2159.289,1934h-37.98
									c-3.462,0-6.56,1.678-6.88,5.178c-0.283,3.46,2.292,5.178,5.792,5.178h37.982c3.501,0,6.558-1.717,6.88-5.178
									C2165.363,1935.678,2162.788,1934,2159.289,1934z M2083.326,1934h-37.98c-3.459,0-6.558,1.678-6.88,5.178
									c-0.322,3.46,2.334,5.178,5.793,5.178h37.982c3.459,0,6.558-1.717,6.88-5.178
									C2089.442,1935.678,2086.827,1934,2083.326,1934z M2007.366,1934h-37.98c-3.46,0-6.557,1.678-6.88,5.178
									c-0.322,3.46,2.293,5.178,5.793,5.178h37.98c3.501,0,6.56-1.717,6.88-5.178C2013.481,1935.678,2010.867,1934,2007.366,1934z
									 M1931.406,1934h-37.98c-3.46,0-6.56,1.678-6.88,5.178c-0.364,3.46,2.332,5.178,5.793,5.178h37.98
									c3.501,0,6.558-1.717,6.88-5.178C1937.521,1935.678,1934.906,1934,1931.406,1934z M1855.445,1934h-37.982
									c-3.459,0-6.558,1.678-6.88,5.178c-0.32,3.46,2.334,5.178,5.795,5.178h37.98c3.46,0,6.558-1.717,6.839-5.178
									C1861.52,1935.678,1858.946,1934,1855.445,1934z M1779.485,1934h-37.982c-3.459,0-6.597,1.678-6.88,5.178
									c-0.322,3.46,2.295,5.178,5.793,5.178h37.98c3.501,0,6.56-1.717,6.841-5.178C1785.559,1935.678,1782.984,1934,1779.485,1934
									z M1703.522,1934h-37.98c-3.46,0-6.558,1.678-6.88,5.178c-0.322,3.46,2.293,5.178,5.793,5.178h37.98
									c3.461,0,6.518-1.717,6.84-5.178C1709.599,1935.678,1707.023,1934,1703.522,1934z"/>
							</g>
							<g>
								
									<linearGradient id="SVGID_00000153685307659334052450000013658276948930091965_" gradientUnits="userSpaceOnUse" x1="2665.1648" y1="1936.8381" x2="2665.1648" y2="1948.9082">
									<stop  offset="0" style="stop-color:#AA80F9"/>
									<stop  offset="0.9964" style="stop-color:#6165D7"/>
								</linearGradient>
								<path style="fill:url(#SVGID_00000153685307659334052450000013658276948930091965_);" d="M2674.13,1948.908
									c-6.33,0-12.659,0-18.991,0c-3.509-0.006-6.102-2.54-5.799-6.035c0.311-3.495,3.395-6.039,6.894-6.035
									c6.33,0,12.659,0,18.991,0c3.497,0,6.07,2.546,5.766,6.035C2680.654,1946.367,2677.629,1948.911,2674.13,1948.908z"/>
							</g>
						</g>
					</g>
				</g>
			</g>
			
				<linearGradient id="SVGID_00000181066798427602481420000016049286214980548015_" gradientUnits="userSpaceOnUse" x1="1551.7562" y1="1553.0148" x2="2362.3359" y2="1553.0148">
				<stop  offset="0" style="stop-color:#AA80F9"/>
				<stop  offset="0.9964" style="stop-color:#6165D7"/>
			</linearGradient>
			<path style="opacity:0.2;fill:url(#SVGID_00000181066798427602481420000016049286214980548015_);" d="M2359.651,1534.515
				c-3.701,23.336-11.265,47.998-23.176,74.19c-1.006,2.213-2.011,4.426-3.096,6.678c-7.163,14.968-15.693,30.417-25.71,46.349
				c-14.524,23.095-30.981,46.43-48.561,69.926c-8.007,10.702-16.215,21.445-24.623,32.187
				c-10.42,13.358-21.083,26.795-31.825,40.234c-8.127,10.139-16.294,20.278-24.421,30.457
				c-59.586,74.311-118.447,149.306-151.762,223.014c-31.101,68.719-39.992,136.271-6.597,201.167
				c19.914,38.785,54.999,76.605,109.554,113.136c-28.564-9.777-56.85-19.593-84.852-29.41
				c-21.565,11.427-42.728,22.852-63.529,34.279c-33.393-11.427-66.385-22.852-99.014-34.279
				c-21.525,11.427-42.687,22.852-63.448,34.279c-33.393-11.427-66.424-22.852-99.055-34.279
				c-21.523,11.427-42.687,22.852-63.448,34.279c-6.88-2.374-13.76-4.977-20.598-7.351
				c-294.349-546.613,305.895-1094.675,3.862-1640.067h141.701c-0.723,51.778,2.012,119.602,16.455,189.568
				c8.41,40.957,20.883,82.331,38.988,120.352c19.834,41.763,46.508,79.69,82.196,108.98c5.151,4.225,10.461,8.282,16.013,12.104
				c18.105,12.674,38.302,23.272,60.833,31.238c77.611,27.519,150.192,57.944,209.979,93.511
				c35.084,20.841,65.741,43.497,90.405,68.401c32.951,33.193,55.241,70.37,63.166,112.656
				C2363.152,1487.561,2363.474,1510.335,2359.651,1534.515z"/>
		</g>
		<g>
			
				<linearGradient id="SVGID_00000058564410569827034240000016180904006180477372_" gradientUnits="userSpaceOnUse" x1="-11885.6689" y1="-60.963" x2="-13394.1299" y2="-219.53" gradientTransform="matrix(-0.9976 0.0942 0.0873 0.9942 9656.3262 -529.3436)">
				<stop  offset="0.0036" style="stop-color:#E38DDD"/>
				<stop  offset="1" style="stop-color:#9571F6"/>
			</linearGradient>
			<path style="fill:url(#SVGID_00000058564410569827034240000016180904006180477372_);" d="M645.939,2545.408
				c13.103,0.36,26.199,1.018,39.296,1.542c13.09-42.592,59.14-103.955,72.126-146.579c2.076-6.814-19.556-1.738-26.679-1.657
				C653.488,2399.587,649.003,2486.44,645.939,2545.408z"/>
			
				<linearGradient id="SVGID_00000155130291651824628000000004841614076792709529_" gradientUnits="userSpaceOnUse" x1="4483.3521" y1="2890.1812" x2="4554.2773" y2="2353.1748" gradientTransform="matrix(-1 0 0 1 5892.1655 0)">
				<stop  offset="0.0036" style="stop-color:#E38DDD"/>
				<stop  offset="1" style="stop-color:#9571F6"/>
			</linearGradient>
			<path style="fill:url(#SVGID_00000155130291651824628000000004841614076792709529_);" d="M1530.928,2874.801
				c-86.595-17.903-176.333-39.455-263.52-70.99c6.214-76.47-28.122-242.102,91.517-260.369
				C1478.563,2525.174,1537.976,2780.961,1530.928,2874.801z"/>
			<g>
				
					<linearGradient id="SVGID_00000054977835280892589030000015895083643547277744_" gradientUnits="userSpaceOnUse" x1="8297.5068" y1="2520.2288" x2="8534.0176" y2="2520.2288" gradientTransform="matrix(-0.9976 0.0942 0.0873 0.9942 9656.3262 -529.3436)">
					<stop  offset="0" style="stop-color:#444B8C"/>
					<stop  offset="0.9964" style="stop-color:#3E4177"/>
				</linearGradient>
				<path style="fill:url(#SVGID_00000054977835280892589030000015895083643547277744_);" d="M1600.656,2780.092
					c4.325,54.557,2.201,76.651-5.352,105.615c-8.562,32.831-26.076,60.996-59.072,77.619c-0.938-0.094,0.788-0.732-0.263-0.07
					c-28.555,17.977-127.234,1.452-157.294-2.708c-12.249-130.235-18.242-382.908-18.242-382.908
					c16.193-3.195,164.382-27.005,207.411,37.538C1576.308,2627.678,1592.79,2680.873,1600.656,2780.092z"/>
				<g>
					
						<linearGradient id="SVGID_00000176007922042448093000000018003078062755859903_" gradientUnits="userSpaceOnUse" x1="8685.5225" y1="2181.6819" x2="8409.3867" y2="2723.032" gradientTransform="matrix(-0.9976 0.0942 0.0873 0.9942 9656.3262 -529.3436)">
						<stop  offset="0" style="stop-color:#EBEFF2"/>
						<stop  offset="0.9946" style="stop-color:#B7C0CE"/>
					</linearGradient>
					<path style="fill:url(#SVGID_00000176007922042448093000000018003078062755859903_);" d="M1292.175,2757.777
						c0.205,57.461,13.318,200.73,94.942,203.977c81.626,3.246,85.776-123.559,81.264-181.907
						c-4.512-58.348-16.294-190.396-92.244-201.986C1300.187,2566.27,1291.973,2700.316,1292.175,2757.777z"/>
					<path style="fill:#FFFFFF;" d="M1322.751,2761.163c0.951,38.092,8.841,142.512,64.123,145.023
						c55.284,2.51,58.031-90.394,54.747-130.288c-3.284-39.894-10.189-136.019-62.99-143.606
						C1325.829,2624.704,1321.798,2723.071,1322.751,2761.163z"/>
				</g>
			</g>
			<g>
				
					<linearGradient id="SVGID_00000064355825493560435360000007058818725350101377_" gradientUnits="userSpaceOnUse" x1="8981.2256" y1="2405.2437" x2="9161.709" y2="2405.2437" gradientTransform="matrix(-0.9976 0.094 0.0852 0.9707 9648.2471 -619.5926)">
					<stop  offset="0" style="stop-color:#444B8C"/>
					<stop  offset="0.9964" style="stop-color:#3E4177"/>
				</linearGradient>
				<path style="fill:url(#SVGID_00000064355825493560435360000007058818725350101377_);" d="M826.946,2421.998
					c33.033,13.282,67.965,83.713,68.028,167.07c0.018,23.31,0.11,116.895-47.858,138.612c-10.374,4.697-22.901,5.223-47.958,6.275
					c-30.281,1.272-55.28-1.508-72.245-4.23c-3.32-52.323-6.534-105.536-8.625-159.655c-2.056-53.259-1.379-107.235-3.396-160.51
					c14.783,0.098,27.526,0.429,37.65,0.785c34.191,1.202,47.512,3.009,62.079,7.396
					C814.621,2417.74,821.534,2419.821,826.946,2421.998z"/>
				<g>
					
						<linearGradient id="SVGID_00000109707721413237845140000017599871731431012273_" gradientUnits="userSpaceOnUse" x1="9288.623" y1="1975.4172" x2="9058.6006" y2="2426.3652" gradientTransform="matrix(-0.9976 0.0942 0.0873 0.9942 9656.3262 -529.3436)">
						<stop  offset="0" style="stop-color:#EBEFF2"/>
						<stop  offset="0.9946" style="stop-color:#B7C0CE"/>
					</linearGradient>
					<path style="fill:url(#SVGID_00000109707721413237845140000017599871731431012273_);" d="M653.854,2561.543
						c2.032,47.616,14.729,164.876,79.729,168.4c65.003,3.524,66.506-105.888,63.694-152.219
						c-2.814-46.331-11.125-160.436-75.084-167.799C658.236,2402.563,651.824,2513.927,653.854,2561.543z"/>
					<path style="fill:#FFFFFF;" d="M678.885,2563.463c1.599,31.027,8.836,114.131,52.499,116.648
						c43.665,2.517,43.628-75.471,41.767-106.386c-1.861-30.915-6.894-111.779-49.749-116.716
						C680.546,2452.072,677.286,2532.435,678.885,2563.463z"/>
				</g>
			</g>
			<g>
				
					<linearGradient id="SVGID_00000017511116659866629250000004184050106693318561_" gradientUnits="userSpaceOnUse" x1="7246.2949" y1="2565.1428" x2="7544.749" y2="2565.1428" gradientTransform="matrix(-0.9976 0.0942 0.0873 0.9942 9656.3262 -529.3436)">
					<stop  offset="0" style="stop-color:#444B8C"/>
					<stop  offset="0.9964" style="stop-color:#3E4177"/>
				</linearGradient>
				<path style="fill:url(#SVGID_00000017511116659866629250000004184050106693318561_);" d="M2509.433,2488.622
					c0.065,0.001-3.612-0.111,1.261,0.033c4.873,0.144,20.17,5.51,27.978,9.997c7.136,4.1,17.63,9.003,20.871,18.238
					c0.015,0.048-0.012-0.248,0.251,0.52c52.688,45.956,80.386,126.196,90.18,189.119c13.107,84.208,16.389,180.646-60.754,226.644
					c-0.248-0.681,0.285-0.087,0.342-0.276c-59.421,21.563-126.848,16.792-188.514,15.185
					c-27.459-144.783-46.196-291.44-66.824-437.358C2392.031,2496.497,2449.273,2487.887,2509.433,2488.622z"/>
				<g>
					
						<linearGradient id="SVGID_00000100363718284862268700000015791506818604130450_" gradientUnits="userSpaceOnUse" x1="7714.3394" y1="2184.4875" x2="7392.2124" y2="2816.0029" gradientTransform="matrix(-0.9976 0.0942 0.0873 0.9942 9656.3262 -529.3436)">
						<stop  offset="0" style="stop-color:#444B8C"/>
						<stop  offset="0.9964" style="stop-color:#3E4177"/>
					</linearGradient>
					<path style="fill:url(#SVGID_00000100363718284862268700000015791506818604130450_);" d="M2270.955,2737.964
						c9.135,68.564,47.325,216.577,141.121,210.251c93.799-6.326,88.101-154.82,77.706-221.979
						c-10.392-67.159-47.529-215.395-139.049-207.754C2259.211,2526.124,2261.818,2669.4,2270.955,2737.964z"/>
					
						<linearGradient id="SVGID_00000176016621469039704910000017209158489111967370_" gradientUnits="userSpaceOnUse" x1="7432.5684" y1="2564.7085" x2="7581.0469" y2="2564.7085" gradientTransform="matrix(-0.9976 0.0942 0.0873 0.9942 9656.3262 -529.3436)">
						<stop  offset="0" style="stop-color:#444B8C"/>
						<stop  offset="0.9964" style="stop-color:#3E4177"/>
					</linearGradient>
					<path style="fill:url(#SVGID_00000176016621469039704910000017209158489111967370_);" d="M2317.675,2731.152
						c6.99,47.323,31.362,153.013,96.036,149.244c64.674-3.769,58.574-111.292,51.062-157.66
						c-7.515-46.368-31.399-152.702-94.94-147.961C2306.291,2579.517,2310.685,2683.829,2317.675,2731.152z"/>
				</g>
			</g>
			
				<linearGradient id="SVGID_00000065076439093855484980000005057279062705990843_" gradientUnits="userSpaceOnUse" x1="3061.563" y1="2378.4133" x2="5273.7788" y2="2378.4133" gradientTransform="matrix(-1 0 0 1 5892.1655 0)">
				<stop  offset="0" style="stop-color:#FF9085"/>
				<stop  offset="1" style="stop-color:#FB6FBB"/>
			</linearGradient>
			<path style="fill:url(#SVGID_00000065076439093855484980000005057279062705990843_);" d="M623.544,2517.374
				c6.07,6.324,15.65,21.28,22.308,27.3c5.175-45.301,15.841-148.78,80.41-138.025c113.683,18.935,86.79,230.789,86.79,230.789
				l462,169.859c0,0-24.879-241.529,109.529-241.529c90.833,0,113.627,140.917,121.143,215.751
				c2.062,20.534-0.059,63.843-4.899,86.809c27.255,7.031,70.606,23.621,70.606,23.621s64.991,19.721,144.402,19.608
				c325.714-0.464,707.668-25.063,1045.854-34.006c61.662-1.631,70.76-57.248,68.647-103.379c-0.044-0.95-0.561-3.566-0.809-4.703
				c-4.61-21.093-14.603-37.949-32.96-48.657c4.311-78.348-2.788-132.027-30.679-213.369
				c-11.088-32.336-45.153-97.457-76.314-133.322c-18.058-20.784-50.844-54.466-75.762-72.352
				c-95.395-75.031-222.267-109.575-339.153-122.405c-121.031-84.198-219.552-158.069-354.568-234.984
				c-66.188-37.706-150.283-71.203-250.54-73.455c-163.612-3.675-369.538-18.458-533.595-25.127
				c-113.36-4.608-176.913,20.691-267.135,79.528c-39.89,26.014-92.147,63.445-132.973,98.188
				c-40.826,34.744-32.128,21.22-70.497,88.685C621.581,2189.148,610.439,2503.723,623.544,2517.374z"/>
			
				<linearGradient id="SVGID_00000072983038191903064440000000146260242492291730_" gradientUnits="userSpaceOnUse" x1="4628.4922" y1="2439.9685" x2="5273.7798" y2="2439.9685" gradientTransform="matrix(-1 0 0 1 5892.1655 0)">
				<stop  offset="0" style="stop-color:#FF9085"/>
				<stop  offset="1" style="stop-color:#FB6FBB"/>
			</linearGradient>
			<path style="opacity:0.2;fill:url(#SVGID_00000072983038191903064440000000146260242492291730_);" d="M685.594,2076.823
				c21.95,60.488,11.23,147.572,35.126,202.194c5.378,10.757,21.514,26.893,32.271,26.893
				c155.978,21.514,166.735,199.007,274.307,268.928c48.407,32.271,129.085-10.757,172.114,37.65
				c47.469,51.785,56.85,120.884,64.262,190.625l-450.623-165.676c0,0,26.893-211.854-86.79-230.789
				c-64.569-10.754-75.234,92.724-80.41,138.025c-6.658-6.021-16.236-20.977-22.307-27.301
				c-13.105-13.65-1.962-328.225,41.805-405.173C674.219,2096.597,680.559,2085.362,685.594,2076.823z"/>
			
				<linearGradient id="SVGID_00000034066879004634026730000017375601938618678704_" gradientUnits="userSpaceOnUse" x1="3213.6631" y1="4075.7192" x2="3826.8174" y2="2419.1248" gradientTransform="matrix(-1 0 0 1 5892.1655 0)">
				<stop  offset="0" style="stop-color:#FF9085"/>
				<stop  offset="1" style="stop-color:#FB6FBB"/>
			</linearGradient>
			<path style="fill:url(#SVGID_00000034066879004634026730000017375601938618678704_);" d="M1585.773,2851.614
				c1.649,14.734,3.412,34.197,12.549,43.25c11.083,10.979,26.21,12.293,31.373,12.751c67.321,5.979,102.643,6.97,1142.91-30.569
				c5.218-0.188,24.973,0.107,41.235-13.136c23.781-19.365,25.535-56.808,26.226-89.741c0.018-0.953-3.314-43.546-43.556-53.606
				c-290.287,4.531-1006.303,37.661-1006.303,37.661s-186.403-9.838-200.512,10.944
				C1576.717,2788.284,1582.747,2824.575,1585.773,2851.614z"/>
			
				<linearGradient id="SVGID_00000000937571691452433930000014237363498886778776_" gradientUnits="userSpaceOnUse" x1="3087.2427" y1="3401.947" x2="3791.396" y2="2662.5857" gradientTransform="matrix(-1 0 0 1 5892.1655 0)">
				<stop  offset="0" style="stop-color:#FF9085"/>
				<stop  offset="1" style="stop-color:#FB6FBB"/>
			</linearGradient>
			<path style="opacity:0.8;fill:url(#SVGID_00000000937571691452433930000014237363498886778776_);" d="M1589.694,2769.167
				c14.108-20.782,200.512-10.944,200.512-10.944s716.016-33.13,1006.303-37.661c24.238,6.059,35.04,23.887,39.832,37.343
				l-1254.607,44.926C1581.896,2789.75,1583.879,2777.731,1589.694,2769.167z"/>
			<path style="fill:#FFFFFF;" d="M2529.219,2521.146c0.365,3.674,1.353,11.174,2.146,15.061
				c2.471,12.104,7.301,23.209,16.501,31.043c9.2,7.834,17.449,12.179,30.248,11.092c33.807-2.874,76.683-5.622,108.979-8.567
				c32.296-2.945,46.792-14.819,66.657-37.356c4.805-5.452,9.823-15.027,14.892-21.029c-19.484-50.07-44.878-94.167-77.865-136.405
				c-0.437,0.164-0.658-0.046-1.237,0.316c-14.068,14.499-32.212,35.048-45.346,48.397c-27.857,28.315-52.935,41.174-89.644,53.067
				C2535.25,2483.017,2527.187,2500.582,2529.219,2521.146z"/>
			<g style="opacity:0.4;">
				
					<linearGradient id="SVGID_00000087397373268072163690000016053949877504593047_" gradientUnits="userSpaceOnUse" x1="5133.3271" y1="-3683.2568" x2="5015.1187" y2="-3970.3357" gradientTransform="matrix(-0.9976 0.0942 0.0873 0.9942 9656.3262 -529.3436)">
					<stop  offset="0.0036" style="stop-color:#E38DDD"/>
					<stop  offset="1" style="stop-color:#9571F6"/>
				</linearGradient>
				<path style="fill:url(#SVGID_00000087397373268072163690000016053949877504593047_);" d="M2039.634,2525.415
					c5.693,6.09,20.651,17.271,28.22,17.008c139.157-4.828,273.63-11.683,412.262-18.926c7.558-0.395,17.482-11.18,20.323-18.972
					c0.026-0.18,0,0,0,0c2.839-7.792,1.191-17.804-7.327-17.415c-152.885,6.975-301.112,14.39-453.727,20.318
					C2030.96,2507.755,2033.941,2519.325,2039.634,2525.415C2039.573,2524.645,2039.634,2525.415,2039.634,2525.415z"/>
				
					<linearGradient id="SVGID_00000155833878355309575560000005981372930894832011_" gradientUnits="userSpaceOnUse" x1="5103.6279" y1="-3671.0085" x2="4985.4209" y2="-3958.0837" gradientTransform="matrix(-0.9976 0.0942 0.0873 0.9942 9656.3262 -529.3436)">
					<stop  offset="0.0036" style="stop-color:#E38DDD"/>
					<stop  offset="1" style="stop-color:#9571F6"/>
				</linearGradient>
				<path style="fill:url(#SVGID_00000155833878355309575560000005981372930894832011_);" d="M2093.619,2589.082
					c0.013,0.013,21.046,18.898,27.224,18.554c112.71-6.26,222.956-10.167,336.368-16.952c6.203-0.371,15.309-13.143,18.058-19.796
					c-0.41-0.396,0,0,0,0c2.75-6.653,2.133-18.829-5.003-18.531c-128.258,5.338-251.167,13.369-380.87,17.209
					C2082.177,2569.78,2093.607,2589.069,2093.619,2589.082C2093.561,2588.009,2093.619,2589.082,2093.619,2589.082z"/>
			</g>
			<path style="fill:#FFFFFF;" d="M1926.285,2609.053c29.202-3.145,40.97-21.567,41.284-48.632
				c0.048-4.121,6.395-50.842-51.516-62.614c-18.628-3.787-10.726,0.144-61.466-13.059
				c-50.742-13.204-181.695-49.395-248.412-72.252c-1.625,10.209,2.837,27.822,5.494,38.39
				c16.098,64.063,48.588,105.587,108.976,133.23c11.066,5.064,29.462,11.648,40.801,15.482
				c29.888,10.106,53.329,14.656,85.603,13.627C1869.939,2612.495,1903.276,2611.531,1926.285,2609.053z"/>
			<g>
				
					<linearGradient id="SVGID_00000101788100205734293400000006335500439767320255_" gradientUnits="userSpaceOnUse" x1="-1497.1917" y1="3286.9199" x2="-1615.3956" y2="2999.8528" gradientTransform="matrix(0.9976 -0.0942 0.0873 0.9942 2767.7012 121.2062)">
					<stop  offset="0" style="stop-color:#FF9085"/>
					<stop  offset="1" style="stop-color:#FB6FBB"/>
				</linearGradient>
				<path style="opacity:0.2;fill:url(#SVGID_00000101788100205734293400000006335500439767320255_);" d="M964.463,2631.973
					c0.119,0.681,0.221,0.398,0.21,0.104c-1.262-37.014,8.73,43.865,4.067-28.474c-2.828-43.85-8.444-267.786-10.039-327.223
					c-1.374-51.219,5.147-95.982,10.26-106.28c2.965-5.969,4.972-7.849,6.315-13.345c1.54-6.309,0.065-8.145-0.621-8.771
					c-1.459-1.334-3.6-1.087-3.819-1.058c0,0-2.916,0.854-6.517,6.06c-13.595,19.664-16.512,65.521-16.703,121.533
					c-0.197,57.623,7.5,284.108,10.116,328.616C961.96,2675.069,958.44,2597.373,964.463,2631.973z"/>
			</g>
			<g>
				<g>
					
						<linearGradient id="SVGID_00000146485610027891307930000017911819674876094363_" gradientUnits="userSpaceOnUse" x1="7626.7285" y1="1819.2897" x2="8586.4111" y2="1819.2897" gradientTransform="matrix(-0.9976 0.0942 0.0873 0.9942 9656.3262 -529.3436)">
						<stop  offset="0" style="stop-color:#AA80F9"/>
						<stop  offset="0.9964" style="stop-color:#6165D7"/>
					</linearGradient>
					<path style="fill:url(#SVGID_00000146485610027891307930000017911819674876094363_);" d="M1232.94,1901.393
						c30.501,77.7,51.795,160.021,90.411,234.121c18.327,27.797,22.971,37.929,34.419,38.41c12.48,1.704,34.995,3.695,73.178,6.303
						c192.983,13.185,562.15,17.046,792.185,4.446c-101.822-89.997-237.064-181.52-359.023-258.93
						C1652.366,1923.893,1443.641,1913.97,1232.94,1901.393z"/>
					<g>
						
							<linearGradient id="SVGID_00000169535586553335411440000014039775938512222857_" gradientUnits="userSpaceOnUse" x1="8753.9082" y1="1719.45" x2="9069.5186" y2="1719.45" gradientTransform="matrix(-0.9976 0.0942 0.0873 0.9942 9656.3262 -529.3436)">
							<stop  offset="0" style="stop-color:#AA80F9"/>
							<stop  offset="0.9964" style="stop-color:#6165D7"/>
						</linearGradient>
						<path style="fill:url(#SVGID_00000169535586553335411440000014039775938512222857_);" d="M759.255,2041.012
							c66.197,33.298,135.443,61.925,203.522,91.865c4.698-29.666,6.294-46.658,15.112-78.226
							c16.268-58.235,44.575-117.439,85.398-166.6c-49.589,4.995-82.611,7.408-133.107,27.472
							C868.185,1940.158,805.191,1987.641,759.255,2041.012z"/>
						
							<linearGradient id="SVGID_00000152978162649184334620000003677571040625637248_" gradientUnits="userSpaceOnUse" x1="8548.583" y1="1786.0028" x2="8847.5303" y2="1786.0028" gradientTransform="matrix(-0.9976 0.0942 0.0873 0.9942 9656.3262 -529.3436)">
							<stop  offset="0" style="stop-color:#AA80F9"/>
							<stop  offset="0.9964" style="stop-color:#6165D7"/>
						</linearGradient>
						<path style="fill:url(#SVGID_00000152978162649184334620000003677571040625637248_);" d="M991.664,2144.823
							c58.387,22.039,117.445,43.741,177.393,60.24c34.178,9.406,67.138,15.044,101.695,19.772c10.1,1.382,19.54,8.911,28.758,2.229
							c0.064-0.047,0.186,0.628-0.018-0.281c-16.453-72.703-64.008-296.718-130.426-328.873c-15.279-7.397-40.39-5.44-57.596-8.97
							c-49.615,47.466-83.356,109.099-102.207,170.902C998.648,2094.639,997.047,2112.188,991.664,2144.823z"/>
					</g>
				</g>
				
					<linearGradient id="SVGID_00000148658102752963185670000003851253210785600160_" gradientUnits="userSpaceOnUse" x1="8554.3154" y1="1968.3464" x2="8571.2227" y2="1951.6772" gradientTransform="matrix(-0.9976 0.0942 0.0873 0.9942 9656.3262 -529.3436)">
					<stop  offset="0" style="stop-color:#444B8C"/>
					<stop  offset="0.9964" style="stop-color:#3E4177"/>
				</linearGradient>
				<path style="opacity:0.3;fill:url(#SVGID_00000148658102752963185670000003851253210785600160_);" d="M1270.851,2224.737
					c9.475,1.876,19.795,8.668,28.667,2.427c0.062-0.044,0.045-0.139-0.068-0.148
					C1289.964,2226.195,1280.377,2225.47,1270.851,2224.737z"/>
				<g>
					
						<linearGradient id="SVGID_00000109717999647082663390000005240057136861439423_" gradientUnits="userSpaceOnUse" x1="7815.8745" y1="2199.1453" x2="8331.0518" y2="1691.2234" gradientTransform="matrix(-0.9976 0.0942 0.0873 0.9942 9656.3262 -529.3436)">
						<stop  offset="0" style="stop-color:#AA80F9"/>
						<stop  offset="0.9964" style="stop-color:#6165D7"/>
					</linearGradient>
					<path style="opacity:0.3;fill:url(#SVGID_00000109717999647082663390000005240057136861439423_);" d="M1354.207,2173.436
						c11.422,1.838,34.367,3.97,76.441,6.813c193.964,13.109,561.972,17.064,792.561,4.415
						c-101.83-89.959-237.435-181.554-358.838-258.894c-5.261-0.355-8.617,0.384-11.939-0.588
						c-28.818,17.585-28.584,24.468-48.878,54.387c-81.419,120.026-374.114,4.666-477.318,160.926
						C1325.166,2142.115,1343.366,2167.955,1354.207,2173.436z"/>
					
						<linearGradient id="SVGID_00000013912519136013762800000014814920055872244131_" gradientUnits="userSpaceOnUse" x1="8686.7109" y1="1938.9592" x2="8840.6025" y2="1787.2352" gradientTransform="matrix(-0.9976 0.0942 0.0873 0.9942 9656.3262 -529.3436)">
						<stop  offset="0" style="stop-color:#AA80F9"/>
						<stop  offset="0.9964" style="stop-color:#6165D7"/>
					</linearGradient>
					<path style="opacity:0.3;fill:url(#SVGID_00000013912519136013762800000014814920055872244131_);" d="M1008.601,2061.348
						c-7.446,27.509-13.308,54.932-16.821,83.159c58.338,22.9,117.043,43.626,177.452,60.631
						c-10.298-12.683-17.1-28.988-24.428-42.922C1113.021,2101.796,1074.392,2075.242,1008.601,2061.348z"/>
					
						<linearGradient id="SVGID_00000171678956353119788150000004446664324706392975_" gradientUnits="userSpaceOnUse" x1="8843.2451" y1="1804.3043" x2="8997.1992" y2="1652.5183" gradientTransform="matrix(-0.9976 0.0942 0.0873 0.9942 9656.3262 -529.3436)">
						<stop  offset="0" style="stop-color:#AA80F9"/>
						<stop  offset="0.9964" style="stop-color:#6165D7"/>
					</linearGradient>
					<path style="opacity:0.3;fill:url(#SVGID_00000171678956353119788150000004446664324706392975_);" d="M758.976,2041.189
						c66.882,32.754,135.419,62.171,203.921,91.422c3.052-25.884,8.402-51.382,14.271-76.63
						c-25.814-6.494-56.933-11.515-71.79-35.38c-26.072-41.885-3.097-74.217,26.417-106.18
						C862.773,1943.549,808.938,1985.322,758.976,2041.189z"/>
				</g>
			</g>
			<g>
				
					<linearGradient id="SVGID_00000055681592287641114580000003577824479292677791_" gradientUnits="userSpaceOnUse" x1="4328.4917" y1="2406.8501" x2="4897.5825" y2="2033.6481" gradientTransform="matrix(-1 0 0 1 5892.1655 0)">
					<stop  offset="0" style="stop-color:#FF9085"/>
					<stop  offset="1" style="stop-color:#FB6FBB"/>
				</linearGradient>
				<path style="fill:url(#SVGID_00000055681592287641114580000003577824479292677791_);" d="M1301.768,2241.549
					c-9.834-41.318-22.746-111.169-63.761-130.902c-41.015-19.733-124.575-44.654-140.043,7.329
					c-15.465,51.983,18.836,89.268,57.84,98.358c39.004,9.09,52.632,5.749,86.363,7.693c11.055,12.853,11.211,19.536,25.83,34.451
					C1282.612,2273.394,1303.794,2273.039,1301.768,2241.549z"/>
			</g>
			<g style="opacity:0.3;">
				
					<linearGradient id="SVGID_00000142157934046866654790000013517395412881303202_" gradientUnits="userSpaceOnUse" x1="4328.3188" y1="2400.3625" x2="4890.9683" y2="2031.3849" gradientTransform="matrix(-1 0 0 1 5892.1655 0)">
					<stop  offset="0" style="stop-color:#FF9085"/>
					<stop  offset="1" style="stop-color:#FB6FBB"/>
				</linearGradient>
				<path style="fill:url(#SVGID_00000142157934046866654790000013517395412881303202_);" d="M1113.349,2096.159
					c30.233-20.896,91.415-1.505,124.658,14.488c41.014,19.733,53.927,89.584,63.76,130.902
					c2.027,31.49-19.156,31.845-33.771,16.929c-14.62-14.916-14.775-21.599-25.829-34.451c-20.495-1.181-33.584-0.424-49.439-1.676
					C1133.598,2206.397,1083.865,2167.787,1113.349,2096.159z"/>
			</g>
		</g>
		<g>
			
				<linearGradient id="SVGID_00000122711007519314194470000013346966134102651568_" gradientUnits="userSpaceOnUse" x1="3035.1445" y1="1602.2932" x2="3057.6909" y2="1747.0912" gradientTransform="matrix(-1 0 0 1 5892.1655 0)">
				<stop  offset="0" style="stop-color:#FFC444"/>
				<stop  offset="0.9964" style="stop-color:#F36F56"/>
			</linearGradient>
			<path style="fill:url(#SVGID_00000122711007519314194470000013346966134102651568_);" d="M2891.21,1606.819
				c0,0-8.465,5.744-18.139,1.511c-9.674-4.232-62.58-29.325-58.65-18.139c3.93,11.186,49.278,31.139,50.487,39.301
				s29.4,4.232,33.482-6.651S2891.21,1606.819,2891.21,1606.819z"/>
			
				<linearGradient id="SVGID_00000171694002996191638220000013405384386635227025_" gradientUnits="userSpaceOnUse" x1="1656.2727" y1="1808.1476" x2="1796.5763" y2="1950.9565" gradientTransform="matrix(1 0 0 1 709.5082 0)">
				<stop  offset="0" style="stop-color:#FFC444"/>
				<stop  offset="0.9964" style="stop-color:#F36F56"/>
			</linearGradient>
			<path style="fill:url(#SVGID_00000171694002996191638220000013405384386635227025_);" d="M2376.799,1828.55
				c0,0,8.181-30.677,2.386-38.517c-5.795-7.84-41.244-39.199-37.836-28.973c3.408,10.226,8.521,17.043,8.521,17.043
				s-19.088,8.862-6.817,22.156c12.271,13.294,16.367,16.361,17.046,28.292C2360.778,1840.48,2368.618,1844.571,2376.799,1828.55z"
				/>
			
				<linearGradient id="SVGID_00000165211176073258998430000005177236258899577244_" gradientUnits="userSpaceOnUse" x1="1958.1196" y1="3117.9253" x2="1956.9375" y2="2801.1055" gradientTransform="matrix(1 0 0 1 709.5082 0)">
				<stop  offset="0" style="stop-color:#AA80F9"/>
				<stop  offset="0.9964" style="stop-color:#6165D7"/>
			</linearGradient>
			<path style="fill:url(#SVGID_00000165211176073258998430000005177236258899577244_);" d="M2717.311,3152.696
				c0,0,4.334,26.531,3.782,35.973c-0.55,9.443-105.331,14.27-106.39,7.196c-1.058-7.074,17.32-18.321,30.254-22.291
				c12.936-3.97,50.794-14.565,50.794-14.565L2717.311,3152.696z"/>
			
				<linearGradient id="SVGID_00000047032013898355646560000002433177602465749922_" gradientUnits="userSpaceOnUse" x1="-1115.0115" y1="3253.7986" x2="-1113.0543" y2="3089.406" gradientTransform="matrix(0.9968 0.0799 -0.0799 0.9968 4070.4365 65.4365)">
				<stop  offset="0" style="stop-color:#FFC444"/>
				<stop  offset="0.9964" style="stop-color:#F36F56"/>
			</linearGradient>
			<path style="fill:url(#SVGID_00000047032013898355646560000002433177602465749922_);" d="M2691.878,3126.246l3.342,32.99
				c0,0,12.172,8.043,22.895,1.835l5.366-35.908L2691.878,3126.246z"/>
			
				<linearGradient id="SVGID_00000021813659072028639370000005111471198672464260_" gradientUnits="userSpaceOnUse" x1="2144.9048" y1="3117.228" x2="2143.7227" y2="2800.4082" gradientTransform="matrix(1 0 0 1 709.5082 0)">
				<stop  offset="0" style="stop-color:#AA80F9"/>
				<stop  offset="0.9964" style="stop-color:#6165D7"/>
			</linearGradient>
			<path style="fill:url(#SVGID_00000021813659072028639370000005111471198672464260_);" d="M2904.258,3195.705
				c0,0,4.335,26.53,3.784,35.973c-0.551,9.442-105.333,14.269-106.391,7.195c-1.059-7.073,17.32-18.321,30.254-22.292
				c12.935-3.969,50.793-14.565,50.793-14.565L2904.258,3195.705z"/>
			
				<linearGradient id="SVGID_00000149340251180437229490000005270285277124414593_" gradientUnits="userSpaceOnUse" x1="-924.9196" y1="3256.0576" x2="-922.9625" y2="3091.6633" gradientTransform="matrix(0.9968 0.0799 -0.0799 0.9968 4070.4365 65.4365)">
				<stop  offset="0" style="stop-color:#FFC444"/>
				<stop  offset="0.9964" style="stop-color:#F36F56"/>
			</linearGradient>
			<path style="fill:url(#SVGID_00000149340251180437229490000005270285277124414593_);" d="M2878.825,3169.255l3.343,32.99
				c0,0,12.17,8.044,22.895,1.834l5.365-35.908L2878.825,3169.255z"/>
			
				<linearGradient id="SVGID_00000143617972074452017620000005860339929580691078_" gradientUnits="userSpaceOnUse" x1="1995.2321" y1="2394.8389" x2="2111.3591" y2="2988.5366" gradientTransform="matrix(1 0 0 1 709.5082 0)">
				<stop  offset="0" style="stop-color:#311944"/>
				<stop  offset="1" style="stop-color:#893976"/>
			</linearGradient>
			<path style="fill:url(#SVGID_00000143617972074452017620000005860339929580691078_);" d="M2710.891,2265.014
				c-12.111,24.555-24.223,49.109-36.335,73.663c-9.74,140.128-14.581,292.5-11.472,455.453
				c2.313,121.237,8.793,236.084,18.099,343.889c16.421-0.752,32.843-1.51,49.265-2.261
				c23.746-47.128,51.777-118.527,54.357-206.664c2.691-91.935-25.181-104.141-23.413-192.166
				c2.292-114.09,50.133-144.53,75.622-281.763c9.747-52.482,16.31-121.031,8.51-204.196
				C2800.645,2255.649,2755.769,2260.335,2710.891,2265.014z"/>
			
				<linearGradient id="SVGID_00000120552206292151454350000001588738595124501143_" gradientUnits="userSpaceOnUse" x1="-1209.7856" y1="2725.0964" x2="-1034.7581" y2="2725.0964" gradientTransform="matrix(0.9968 0.0799 -0.0799 0.9968 4070.4365 65.4365)">
				<stop  offset="0" style="stop-color:#311944"/>
				<stop  offset="1" style="stop-color:#893976"/>
			</linearGradient>
			<path style="opacity:0.3;fill:url(#SVGID_00000120552206292151454350000001588738595124501143_);" d="M2845.522,2250.969
				c-24.236,2.527-48.472,5.055-72.709,7.587c-43.628,75.921-55.808,154.943-48.152,189.896
				c10.831,49.454,39.483,65.296,37.908,114.947c-1.558,49.129-30.503,61.868-48.865,119.774
				c-12.71,40.092-9.356,76.953-2.125,149.041c14.563,145.207,49.627,189.614,20.256,237.222
				c-8.346,13.527-23.383,29.637-52.844,41.937c0.721,8.905,1.431,17.837,2.192,26.647c16.421-0.749,32.843-1.51,49.265-2.259
				c23.746-47.134,51.777-118.529,54.357-206.666c2.692-91.936-25.181-104.144-23.413-192.167
				c2.292-114.09,50.133-144.527,75.622-281.761C2846.76,2402.684,2853.323,2334.135,2845.522,2250.969z"/>
			
				<linearGradient id="SVGID_00000049189546633324637760000002325001194550855808_" gradientUnits="userSpaceOnUse" x1="-1110.9725" y1="2750.0981" x2="-845.2641" y2="2750.0981" gradientTransform="matrix(0.9968 0.0799 -0.0799 0.9968 4070.4365 65.4365)">
				<stop  offset="0" style="stop-color:#311944"/>
				<stop  offset="1" style="stop-color:#893976"/>
			</linearGradient>
			<path style="fill:url(#SVGID_00000049189546633324637760000002325001194550855808_);" d="M2776.05,2309.22
				c22.735,123.975,42.817,256.66,58.486,397.377c18.918,169.904,29.015,330.082,32.985,478.8
				c18.024,0.513,36.048,1.02,54.072,1.532c71.024-140.505,75.364-235.766,65.123-297.787
				c-3.946-23.899-14.664-70.762-17.111-140.799c-1.704-48.821,1.41-85.975,5.3-130.639c8.529-97.927,18.881-119.305,20.368-194.209
				c1.398-70.297,1.686-105.867-18.381-126.629C2924.023,2242.167,2786.484,2304.379,2776.05,2309.22z"/>
			
				<linearGradient id="SVGID_00000160906511905521012260000017389761048911440033_" gradientUnits="userSpaceOnUse" x1="2473.4465" y1="1074.746" x2="2641.6802" y2="3114.5574">
				<stop  offset="0" style="stop-color:#FFC444"/>
				<stop  offset="0.9964" style="stop-color:#F36F56"/>
			</linearGradient>
			<path style="fill:url(#SVGID_00000160906511905521012260000017389761048911440033_);" d="M2386.231,1823.823
				c-11.987-0.836-23.973-1.673-35.96-2.509c-28.278,114.268-7.995,225.116,55.828,265.881
				c99.714,63.69,285.029-56.305,325.188-186.964c17.627-57.35,13.614-140.115-21.616-156.195
				c-9.779-4.465-24.952-5.158-57.829,13.3c-98.18,55.123-100.761,159.305-150.673,168.129
				C2478.978,1929.389,2443.142,1915.239,2386.231,1823.823z"/>
			
				<linearGradient id="SVGID_00000107575115857856175720000004646313300676583358_" gradientUnits="userSpaceOnUse" x1="2781.5288" y1="1049.3352" x2="2949.7627" y2="3089.1497">
				<stop  offset="0" style="stop-color:#FFC444"/>
				<stop  offset="0.9964" style="stop-color:#F36F56"/>
			</linearGradient>
			<path style="fill:url(#SVGID_00000107575115857856175720000004646313300676583358_);" d="M2628.58,2079.51
				c23.436,101.942,47.126,112.209,41.539,173.736c-0.799,8.779-2.032,16.869-3.483,24.38c-7.474,38.889-20.353,62.179-5.877,86.196
				c12.878,21.368,38.273,28.08,97.297,36.531c150.446,21.478,225.686,32.216,250.247-5.477
				c10.194-15.636,5.697-28.877-0.797-80.538c-6.822-53.801-17.269-136.732-11.392-190.678
				c8.416-77.382,52.132-109.957,80.283-147.398c0,0,0.326-0.398,0.907-1.16c15.057-20.352,25.432-42.301,23-73.754
				c-0.942-12.116-3.591-23.581-7.544-34.356c-24.851-68.057-99.802-108.834-103.974-111.01c-0.471-0.255-0.944-0.473-1.416-0.726
				c-0.035,0-0.073-0.035-0.108-0.035c-32.615-16.58-76.62-18.903-163.289-23.4c-71.176-3.738-107.274-5.296-133.756,10.157
				c-51.262,29.929-65.774,91.857-74.335,128.389C2598.034,1946.589,2612.981,2011.671,2628.58,2079.51z"/>
			
				<linearGradient id="SVGID_00000154413256612253056770000011593100810276237206_" gradientUnits="userSpaceOnUse" x1="2774.0183" y1="1575.7859" x2="2833.6033" y2="1787.8385">
				<stop  offset="0" style="stop-color:#FFC444"/>
				<stop  offset="0.9964" style="stop-color:#F36F56"/>
			</linearGradient>
			<path style="fill:url(#SVGID_00000154413256612253056770000011593100810276237206_);" d="M2828.579,1643.05
				c0,0,1.48,32.795,11.661,57.354c9.199,22.196,57.588,36.15,67.395,41.104c9.81,4.954-18.375,19.437-46.68,22.283
				c-28.303,2.846-109.134-3.581-123.705-14.311c-14.571-10.729,11.708-9.922,31.912-17.339
				c20.202-7.416,31.883-46.926,28.317-64.859C2793.915,1649.347,2828.579,1643.05,2828.579,1643.05z"/>
			
				<linearGradient id="SVGID_00000133508168128959018850000010064625915793778874_" gradientUnits="userSpaceOnUse" x1="-1076.6399" y1="1778.9429" x2="-1147.5463" y2="1598.8538" gradientTransform="matrix(0.9968 0.0799 -0.0799 0.9968 4070.4365 65.4365)">
				<stop  offset="0" style="stop-color:#444B8C"/>
				<stop  offset="0.9964" style="stop-color:#3E4177"/>
			</linearGradient>
			<path style="fill:url(#SVGID_00000133508168128959018850000010064625915793778874_);" d="M2783.813,1631.16
				c-14.686-14.429-16.736-16.115-18.336-21.103c-6.418-20.019,9.108-47.433,29.474-54.183c1.059-0.35,14.717-4.722,19.93,1.204
				c4.428,5.031-2.086,11.981,1.011,21.679c2.901,9.079,10.771,9.759,25.358,21.665c12.017,9.805,19.484,15.901,21.207,24.475
				c3.552,17.678-17.847,43.297-36.791,42.6C2818.853,1667.247,2817,1663.767,2783.813,1631.16z"/>
			<g>
				
					<linearGradient id="SVGID_00000178906636848061005190000006243224476229395380_" gradientUnits="userSpaceOnUse" x1="-3177.7056" y1="2724.6455" x2="-3218.0107" y2="2568.0986" gradientTransform="matrix(0.7795 0.6265 -0.6265 0.7795 7394.8193 622.2045)">
					<stop  offset="0" style="stop-color:#FFC444"/>
					<stop  offset="0.9964" style="stop-color:#F36F56"/>
				</linearGradient>
				<path style="fill:url(#SVGID_00000178906636848061005190000006243224476229395380_);" d="M2823.812,1670.228
					c0,0-15.611,17.676-39.393,11.833c-21.293-5.231-15.86-54.101-0.277-61.908c5.198-2.603,14.644-2.388,21.747,1.035
					c4.197,2.023,5.363,4.123,12.283,7.295c6.382,2.923,8.406,2.518,10.122,4.578c2.149,2.574,3.073,8.115-3.657,21.49
					c4.85-3.432,10.067-4.151,13.269-1.881c0.511,0.364,1.812,1.633,2.372,3.305
					C2842.307,1662.029,2836.016,1668.18,2823.812,1670.228z"/>
			</g>
			
				<linearGradient id="SVGID_00000116237256462947970510000007516091374483275695_" gradientUnits="userSpaceOnUse" x1="3005.1233" y1="1030.8961" x2="3173.3569" y2="3070.7073">
				<stop  offset="0" style="stop-color:#FFC444"/>
				<stop  offset="0.9964" style="stop-color:#F36F56"/>
			</linearGradient>
			<path style="fill:url(#SVGID_00000116237256462947970510000007516091374483275695_);" d="M3063.845,1691.77
				c8.453,52.603-70.597,66.243-76.475,63.487c-0.035,0-0.073-0.035-0.108-0.035c-2.758,0,29.421,78.469,55.833,141.883
				c17.994,43.025,33.302,79.158,33.302,79.158s0.326-0.398,0.907-1.16c10.775-13.604,112.281-143.626,137.784-231.055
				c5.624-19.119,7.546-36.17,4.136-49.557c-19.953-77.998-144.496-166.589-327.12-92.8l7.183,33.848
				C2899.288,1635.539,3055.356,1639.167,3063.845,1691.77z"/>
			
				<linearGradient id="SVGID_00000113334350016820191270000010476584939374418355_" gradientUnits="userSpaceOnUse" x1="3620.3367" y1="3148.3293" x2="2537.1968" y2="1593.326" gradientTransform="matrix(-1 0 0 1 5892.1655 0)">
				<stop  offset="0" style="stop-color:#FFC444"/>
				<stop  offset="0.9964" style="stop-color:#F36F56"/>
			</linearGradient>
			<path style="opacity:0.3;fill:url(#SVGID_00000113334350016820191270000010476584939374418355_);" d="M2660.759,2363.823
				c12.878,21.368,38.273,28.08,97.297,36.531c150.446,21.478,225.686,32.216,250.247-5.477
				c10.194-15.636,5.697-28.877-0.797-80.538c-6.822-53.801-17.269-136.732-11.392-190.678
				c8.416-77.382,52.132-109.957,80.283-147.398c0,0,0.326-0.398,0.907-1.16c10.775-13.604,112.281-143.626,137.784-231.055
				c-14.692,21.186-56.92,76.981-122.329,122.945c-15.31,10.775-31.889,21.005-49.665,30.112
				c-20.171,10.34-41.902,19.299-65.12,25.974c-154.182,44.405-176.385,227.61-129.005,278.399s29.24,119.718-59.641,90.695
				c-36.06-11.791-84.71-17.886-122.692-14.547C2659.163,2316.516,2646.283,2339.806,2660.759,2363.823z"/>
		</g>
		<g>
			<g>
				
					<linearGradient id="SVGID_00000096036727153181648130000010367325132017626047_" gradientUnits="userSpaceOnUse" x1="1053.5306" y1="334.7176" x2="962.4633" y2="1328.5369">
					<stop  offset="0" style="stop-color:#311944"/>
					<stop  offset="1" style="stop-color:#893976"/>
				</linearGradient>
				<path style="fill:url(#SVGID_00000096036727153181648130000010367325132017626047_);" d="M995.737,484.343
					c-265.69,0-481.073,215.383-481.073,481.073s215.383,481.073,481.073,481.073s481.073-215.383,481.073-481.073
					S1261.427,484.343,995.737,484.343z M995.737,1364.021c-220.143,0-398.605-178.461-398.605-398.605
					s178.461-398.605,398.605-398.605s398.605,178.461,398.605,398.605S1215.881,1364.021,995.737,1364.021z"/>
			</g>
			<circle style="fill:#FFFFFF;" cx="1029.136" cy="956.099" r="420.08"/>
			<g>
				
					<linearGradient id="SVGID_00000126313060593204722450000016822849250053490832_" gradientUnits="userSpaceOnUse" x1="843.5541" y1="965.416" x2="1271.7825" y2="965.416">
					<stop  offset="0" style="stop-color:#444B8C"/>
					<stop  offset="0.9964" style="stop-color:#3E4177"/>
				</linearGradient>
				<path style="fill:url(#SVGID_00000126313060593204722450000016822849250053490832_);" d="M1271.782,845.977
					c0,63.281-19.826,112.089-59.768,146.687c-40.357,34.953-98.453,53.741-175.049,56.144l-57.12,1.792v216.867l-136.291,7.883
					V655.482l203.628,3.375c74.743,1.239,130.653,17.701,168.504,49.168C1253.172,739.205,1271.782,785.114,1271.782,845.977z
					 M979.845,944.672l43.88-0.809c40.585-0.749,70.686-9.05,90.539-24.847c19.756-15.72,29.594-38.268,29.594-67.694
					c0-29.693-8.245-51.622-24.786-65.826c-16.609-14.254-42.782-21.475-78.694-21.606l-60.532-0.221V944.672z"/>
			</g>
			<g>
				
					<linearGradient id="SVGID_00000122001536454913469880000014058865601214928781_" gradientUnits="userSpaceOnUse" x1="1225.29" y1="1258.6595" x2="1134.222" y2="2252.4868" gradientTransform="matrix(0.7803 0.6254 -0.6254 0.7803 1276.2209 -1224.5046)">
					<stop  offset="0" style="stop-color:#FF9085"/>
					<stop  offset="1" style="stop-color:#FB6FBB"/>
				</linearGradient>
				<polygon style="fill:url(#SVGID_00000122001536454913469880000014058865601214928781_);" points="781.254,1323.24 
					724.099,1277.426 1276.343,588.484 1333.497,634.298 				"/>
				<g>
					
						<linearGradient id="SVGID_00000074412188667216275330000012573938805681475001_" gradientUnits="userSpaceOnUse" x1="1086.5916" y1="325.1634" x2="995.5242" y2="1318.9827">
						<stop  offset="0" style="stop-color:#FF9085"/>
						<stop  offset="1" style="stop-color:#FB6FBB"/>
					</linearGradient>
					<path style="fill:url(#SVGID_00000074412188667216275330000012573938805681475001_);" d="M1028.798,474.789
						c-265.69,0-481.073,215.383-481.073,481.073s215.383,481.073,481.073,481.073s481.073-215.383,481.073-481.073
						S1294.488,474.789,1028.798,474.789z M1028.798,1354.466c-220.143,0-398.605-178.461-398.605-398.605
						s178.461-398.605,398.605-398.605s398.605,178.461,398.605,398.605S1248.942,1354.466,1028.798,1354.466z"/>
				</g>
				
					<linearGradient id="SVGID_00000043459235540657240900000017181032707667424680_" gradientUnits="userSpaceOnUse" x1="1088.2544" y1="307.0152" x2="989.349" y2="1386.3722">
					<stop  offset="0" style="stop-color:#FF9085"/>
					<stop  offset="1" style="stop-color:#FB6FBB"/>
				</linearGradient>
				<path style="opacity:0.3;fill:url(#SVGID_00000043459235540657240900000017181032707667424680_);" d="M1028.798,474.789
					c-265.689,0-481.073,215.383-481.073,481.073c0,265.69,215.384,481.073,481.073,481.073
					c265.69,0,481.074-215.383,481.074-481.073C1509.871,690.172,1294.488,474.789,1028.798,474.789z M630.193,955.862
					c0-220.143,178.462-398.604,398.605-398.604c81.19,0,156.695,24.296,219.684,65.983l-496.499,619.4
					C676.902,1170.151,630.193,1068.468,630.193,955.862z M1028.798,1354.467c-81.189,0-156.695-24.297-219.685-65.983l496.5-619.4
					c75.081,72.488,121.79,174.173,121.79,286.778C1427.403,1176.005,1248.942,1354.467,1028.798,1354.467z"/>
			</g>
		</g>
		<g>
			
				<linearGradient id="SVGID_00000073700819064215883100000016550940030437833406_" gradientUnits="userSpaceOnUse" x1="4103.7051" y1="1942.0459" x2="4147.4263" y2="2075.4915" gradientTransform="matrix(-1 0 0 1 5892.1655 0)">
				<stop  offset="0" style="stop-color:#FFC444"/>
				<stop  offset="0.9964" style="stop-color:#F36F56"/>
			</linearGradient>
			<path style="fill:url(#SVGID_00000073700819064215883100000016550940030437833406_);" d="M1712.521,1986.457
				c0,0,15.011-26.438,34.493-25.375c19.48,1.063,24.25-18.343,37.183-16.226c12.935,2.117-6.017,17.301-6.017,17.301
				s23.806-5.892,52.777-1.151c28.973,4.742,17.381,21.912-20.684,29.019c-38.064,7.109-68.348-1.091-82.862,16.189
				C1712.897,2023.493,1682.84,2011.536,1712.521,1986.457z"/>
			
				<linearGradient id="SVGID_00000145766304501820465770000015151430551405144511_" gradientUnits="userSpaceOnUse" x1="-2533.7964" y1="-1823.1329" x2="-2288.6826" y2="-2389.4951" gradientTransform="matrix(-0.5678 -0.8232 -0.8232 0.5678 -1844.3092 1396.9607)">
				<stop  offset="0" style="stop-color:#444B8C"/>
				<stop  offset="0.9964" style="stop-color:#3E4177"/>
			</linearGradient>
			<path style="fill:url(#SVGID_00000145766304501820465770000015151430551405144511_);" d="M1222.973,1758.916
				c27.979-10.55,59.22-8.283,85.47,6.036c26.251,14.32,44.984,39.337,51.294,68.566c19.612,90.85,79.54,161.935,155.453,184.636
				c93.231,27.879,177.913-26.987,192.4-36.695c8.347,12.644,16.695,25.29,25.041,37.934
				c-17.017,22.398-126.026,161.391-292.511,161.488c-194.57,0.11-383.923-185.205-349.897-308.625
				C1105.589,1816.521,1164.453,1780.982,1222.973,1758.916z"/>
			
				<linearGradient id="SVGID_00000125572345529664123570000006800688657973301384_" gradientUnits="userSpaceOnUse" x1="-1904.5612" y1="3516.8342" x2="-1815.9441" y2="3516.8342" gradientTransform="matrix(-0.996 0.0897 0.0897 0.996 -1133.5002 -160.4537)">
				<stop  offset="0" style="stop-color:#444B8C"/>
				<stop  offset="0.9964" style="stop-color:#26264F"/>
			</linearGradient>
			<path style="fill:url(#SVGID_00000125572345529664123570000006800688657973301384_);" d="M996.047,3158.363
				c-4.598,4.227-4.888,14.1-5.078,20.553c-0.087,2.883-0.128,4.325,0.254,5.319c2.787,7.244,17.16,7.147,39.764,8.073
				c35.722,1.463,46.455,3.614,48.913-1.839c2.302-5.11-4.494-12.832-5.257-13.683c-4.108-4.572-8.897-6.034-18.13-8.462
				c-17.085-4.491-28.585-6.82-32.067-7.526C1002.702,3156.392,999.065,3155.589,996.047,3158.363z"/>
			
				<linearGradient id="SVGID_00000009562977249577799110000014225210324538255503_" gradientUnits="userSpaceOnUse" x1="-2346.9028" y1="3406.7954" x2="-2308.0234" y2="3326.324" gradientTransform="matrix(-0.9976 0.0694 0.0694 0.9976 -1549.4261 -60.6691)">
				<stop  offset="0" style="stop-color:#FFC444"/>
				<stop  offset="0.9964" style="stop-color:#F36F56"/>
			</linearGradient>
			<path style="fill:url(#SVGID_00000009562977249577799110000014225210324538255503_);" d="M1021.1,3122.743l1.393,40.661
				c-1.113,1.901-13.456,7.121-22.742,1.583l-7.008-40.27L1021.1,3122.743z"/>
			
				<linearGradient id="SVGID_00000105388292164432370340000002047102700186912645_" gradientUnits="userSpaceOnUse" x1="-2218.98" y1="3930.7239" x2="-2124.8306" y2="3930.7239" gradientTransform="matrix(-0.977 0.2133 0.2133 0.977 -1621.9948 -210.6557)">
				<stop  offset="0" style="stop-color:#444B8C"/>
				<stop  offset="0.9964" style="stop-color:#26264F"/>
			</linearGradient>
			<path style="fill:url(#SVGID_00000105388292164432370340000002047102700186912645_);" d="M1296.947,3152.742
				c-6.142,6.096-8.094,17.819-3.36,23.899c4.652,5.977,12.335,2.091,33.443,3.85c22.609,1.887,28.236,7.55,43.853,4.127
				c6.309-1.386,17.512-4.969,17.541-9.419c0.02-3.13-5.484-5.04-23.821-12.293c-26.029-10.293-25.886-10.773-31.464-12.005
				C1319.128,3147.805,1305.06,3144.695,1296.947,3152.742z"/>
			
				<linearGradient id="SVGID_00000110468694064843421400000009963939955195870084_" gradientUnits="userSpaceOnUse" x1="-2432.6704" y1="3689.0781" x2="-2392.9678" y2="3606.9031" gradientTransform="matrix(-0.9894 0.1453 0.1453 0.9894 -1615.4668 -128.6684)">
				<stop  offset="0" style="stop-color:#FFC444"/>
				<stop  offset="0.9964" style="stop-color:#F36F56"/>
			</linearGradient>
			<path style="fill:url(#SVGID_00000110468694064843421400000009963939955195870084_);" d="M1313.429,3116.582l9.341,38.389
				c-0.967,1.981-12.874,8.125-22.556,3.313l-14.91-37.573L1313.429,3116.582z"/>
			
				<linearGradient id="SVGID_00000049935391916159549830000004125001896976658111_" gradientUnits="userSpaceOnUse" x1="5342.8208" y1="2740.032" x2="5091.7061" y2="2173.9597" gradientTransform="matrix(0.9986 0.0533 -0.0533 0.9986 -3827.6272 -19.3005)">
				<stop  offset="0" style="stop-color:#444B8C"/>
				<stop  offset="0.9964" style="stop-color:#3E4177"/>
			</linearGradient>
			<path style="fill:url(#SVGID_00000049935391916159549830000004125001896976658111_);" d="M1256.697,2283.708
				c-5.153,127.063-4.112,270.296,8.396,426.517c12.36,154.4,33.76,294.457,58.666,417.939c-14.7,3.125-29.399,6.251-44.099,9.375
				c-34.935-36.245-78.433-92.688-96.74-170.145c-11.362-48.075-5.434-72.15-11.135-130.839
				c-9.078-93.447-34.9-143.53-60.277-219.849c-22.804-68.58-48.736-168.827-58.426-301.491
				C1120.954,2304.713,1188.826,2294.21,1256.697,2283.708z"/>
			
				<linearGradient id="SVGID_00000003075637856663212810000017375472612628192933_" gradientUnits="userSpaceOnUse" x1="5303.8789" y1="2757.3059" x2="5052.7646" y2="2191.2344" gradientTransform="matrix(0.9986 0.0533 -0.0533 0.9986 -3827.6272 -19.3005)">
				<stop  offset="0" style="stop-color:#444B8C"/>
				<stop  offset="0.9964" style="stop-color:#3E4177"/>
			</linearGradient>
			<path style="opacity:0.3;fill:url(#SVGID_00000003075637856663212810000017375472612628192933_);" d="M1236.395,2877.531
				c-16.186-64.102-47.369-81.052-48.48-141.559c-0.786-42.799,14.595-46.298,13.574-87.264
				c-1.548-62.137-37.949-94.718-56.237-133.804c-19.314-41.28-26.714-107.585,25.338-217.874
				c-39.169,6.062-78.339,12.124-117.509,18.184c9.689,132.663,35.621,232.911,58.426,301.49
				c25.378,76.32,51.199,126.403,60.277,219.849c5.701,58.689-0.227,82.765,11.135,130.839
				c18.307,77.458,61.805,133.901,96.74,170.146c3.739-0.796,7.478-1.589,11.216-2.385c-37.765-45.078-51.092-85.336-54.481-118.001
				C1230.88,2964.008,1252.714,2942.164,1236.395,2877.531z"/>
			
				<linearGradient id="SVGID_00000025441015312243279930000017487561795564447616_" gradientUnits="userSpaceOnUse" x1="4755.1841" y1="3277.9258" x2="4504.0635" y2="2711.8396" gradientTransform="matrix(0.9976 -0.0694 0.0694 0.9976 -3750.9404 92.9864)">
				<stop  offset="0" style="stop-color:#444B8C"/>
				<stop  offset="0.9964" style="stop-color:#3E4177"/>
			</linearGradient>
			<path style="fill:url(#SVGID_00000025441015312243279930000017487561795564447616_);" d="M1109.772,2275.765
				c-17.494,161.019-33.574,325.128-48.041,492.244c-10.858,125.405-20.528,249.275-29.089,371.567
				c-14.9,1.036-29.802,2.075-44.702,3.111c-12.881-27.395-29.706-69.124-39.934-122.004
				c-12.423-64.225-6.753-101.667-10.176-167.726c-3.844-74.09-14.285-90.744-29.335-184.752
				c-30.547-190.788-45.821-286.182,2.623-342.427C926.845,2307.517,975.508,2262.204,1109.772,2275.765z"/>
			
				<linearGradient id="SVGID_00000181070486270384473800000002413150617878503101_" gradientUnits="userSpaceOnUse" x1="7593.3477" y1="-2639.7258" x2="8036.6265" y2="-3663.9707" gradientTransform="matrix(0.1824 0.9832 -0.9832 0.1824 -3536.7258 -5167.8965)">
				<stop  offset="0" style="stop-color:#444B8C"/>
				<stop  offset="0.9964" style="stop-color:#3E4177"/>
			</linearGradient>
			<path style="opacity:0.3;fill:url(#SVGID_00000181070486270384473800000002413150617878503101_);" d="M1610.992,2129.878
				c-19.508,2.894-36.239,1.909-50.341-0.948c-51.05-10.347-94.16-49.513-145.631-30.173c-25.724,9.665-32.35,25.983-52.817,23.606
				c-29.01-3.368-34.158-38.292-72.058-69.465c-33.62-27.654-59.473-24.764-85.817-37.328
				c-35.677-17.013-74.004-63.273-88.083-190.021c-12.043,13.725-21.197,29.207-26.021,46.704
				c-34.026,123.421,155.328,308.737,349.897,308.626C1507.153,2180.842,1564.847,2158.274,1610.992,2129.878z"/>
			
				<linearGradient id="SVGID_00000059294276370297836270000015136141334763397013_" gradientUnits="userSpaceOnUse" x1="2215.7783" y1="2380.7671" x2="2598.8762" y2="1495.5774" gradientTransform="matrix(1 0 0 1 -1332.9938 0)">
				<stop  offset="0" style="stop-color:#444B8C"/>
				<stop  offset="0.9964" style="stop-color:#3E4177"/>
			</linearGradient>
			<path style="fill:url(#SVGID_00000059294276370297836270000015136141334763397013_);" d="M1322.513,1893.3
				c-7.135-39.904-14.269-79.81-21.404-119.715c-1.621-9.065-8.372-16.38-17.278-18.726c-56.775-14.958-126.454-27.844-206.45-31.14
				c-150.201-6.19-273.016,24.051-353.507,51.341c17.089,36.423,39.456,88.244,60.691,152.273
				c33.952,102.374,60.462,182.308,62.053,286.998c0.348,22.817,0.115,86.561,3.879,180.344
				c2.439,60.795,5.012,95.665,25.208,104.717c21.062,9.437,38.147-19.568,89.204-36.844c37.492-12.688,75.277-9.278,149.316-1.939
				c110.415,10.943,118.242,26.555,139.878,13.622c33.267-19.884,25.38-63.129,44.237-228.658
				c11.567-101.525,16.509-102.608,21.558-174.531C1324.949,1999.116,1324.356,1938.24,1322.513,1893.3z"/>
			
				<linearGradient id="SVGID_00000011033417316347773110000008539899436310190267_" gradientUnits="userSpaceOnUse" x1="4543.5073" y1="2411.0815" x2="4927.4663" y2="1523.9021" gradientTransform="matrix(1 0 0 1 -3590.0471 0)">
				<stop  offset="0" style="stop-color:#444B8C"/>
				<stop  offset="0.9964" style="stop-color:#3E4177"/>
			</linearGradient>
			<path style="opacity:0.3;fill:url(#SVGID_00000011033417316347773110000008539899436310190267_);" d="M1211.184,2419.886
				c-54.307-23.173-53.993-71.129-104.715-91.142c-72.379-28.56-152.346,37.789-164.831,19.391
				c-12.993-19.143,82.515-77.846,69.81-135.742c-10.097-46.01-76.766-37.856-112.473-100.837
				c-33.873-59.745-1.033-114.981-31.027-135.744c-10.757-7.446-29.731-10.385-65.706,5.447
				c25.085,78.344,43.072,147.432,44.375,233.072c0.347,22.817,0.116,86.561,3.879,180.344
				c2.439,60.795,5.011,95.665,25.209,104.717c21.062,9.437,38.147-19.568,89.203-36.844c37.494-12.688,75.278-9.278,149.317-1.939
				c110.415,10.944,118.242,26.556,139.879,13.623c14.091-8.422,20.79-21.086,25.274-45.413
				C1257.244,2431.206,1233.761,2429.518,1211.184,2419.886z"/>
			<path style="fill:#FFFFFF;" d="M972.968,1725.094c-0.103,22.708,33.85,99.807,92.181,212.394
				c16.198,31.191,35.433,65.354,55.603,102.209c10.354-23.63,18.569-46.85,25.489-69.275v-0.026
				c31.14-122.762,12.685-223.902,8.841-238.612c-0.334-1.256-4.96-2.36-4.96-2.36
				C1080.975,1706.589,991.471,1719.431,972.968,1725.094z"/>
			<g>
				
					<linearGradient id="SVGID_00000057110568716736766550000014485153282206464153_" gradientUnits="userSpaceOnUse" x1="4861.73" y1="-191.7907" x2="4871.4409" y2="-450.4532" gradientTransform="matrix(0.8944 0.4471 -0.4471 0.8944 -3419.0203 -182.9961)">
					<stop  offset="0" style="stop-color:#FFC444"/>
					<stop  offset="0.9964" style="stop-color:#F36F56"/>
				</linearGradient>
				<path style="fill:url(#SVGID_00000057110568716736766550000014485153282206464153_);" d="M1067.436,1620.008
					c-1.184,26.321-5.233,47.03-8.774,61.171c-4.055,16.202-6.573,20.309-9.681,23.585c-4.678,4.932-11.584,8.909-49.784,16.245
					c-20.787,3.991-12.979,2.819-13.541,4.83c-2.739,9.814,42.345,49.515,100.578,44.443c35.639-3.103,56.966-25.846,55.556-36.548
					c-1.419-10.772-26.512-4.627-36.013-24.485c-6.609-13.814,2.621-32.431,13.171-47.693
					C1110.485,1643.438,1075.896,1638.124,1067.436,1620.008z"/>
				<g>
					
						<linearGradient id="SVGID_00000070093932308683324400000003271561677333196976_" gradientUnits="userSpaceOnUse" x1="1297.2235" y1="1628.2474" x2="1391.7285" y2="1628.2474" gradientTransform="matrix(-1 0 0 1 2435.7729 0)">
						<stop  offset="0" style="stop-color:#AB316D"/>
						<stop  offset="1" style="stop-color:#792D3D"/>
					</linearGradient>
					<path style="fill:url(#SVGID_00000070093932308683324400000003271561677333196976_);" d="M1131.36,1631.316
						c8.541-10.167,10.02-28.635,1.455-40.817c-7.371-10.483-19.737-12.581-27.141-13.84c-21.455-3.645-49.175,3.912-59.711,23.275
						c-6.242,11.475,4.596,36.589,6.262,41.089c1.889,5.088,5.7,7.003,9.112,10.956c4.727,5.483,12.121,14.193,24.171,28.745
						c1.212-4.04,2.995-9.024,5.688-14.387c1.037-2.065,5.189-10.121,11.171-16.666
						C1114.351,1636.55,1123.264,1640.952,1131.36,1631.316z"/>
					
						<linearGradient id="SVGID_00000009561562935154307540000007023936098042777748_" gradientUnits="userSpaceOnUse" x1="4385.2549" y1="1452.6982" x2="4382.3105" y2="1689.9066" gradientTransform="matrix(0.9999 -0.0116 0.0116 0.9999 -3308.6943 228.061)">
						<stop  offset="0" style="stop-color:#FFC444"/>
						<stop  offset="0.9964" style="stop-color:#F36F56"/>
					</linearGradient>
					<path style="fill:url(#SVGID_00000009561562935154307540000007023936098042777748_);" d="M1067.886,1668.086
						c0,0,12.949,24.041,41.304,23.712c25.386-0.296,32.121-56.833,16.606-69.734c-5.177-4.305-15.885-6.55-24.795-4.558
						c-5.263,1.177-7.134,3.238-15.77,4.991c-7.967,1.62-10.139,0.63-12.618,2.498c-3.099,2.34-5.6,8.344-1.531,25.194
						c-4.566-5.144-10.259-7.329-14.468-5.611c-0.671,0.277-2.471,1.365-3.545,3.103
						C1049.185,1653.972,1054.662,1662.564,1067.886,1668.086z"/>
					
						<linearGradient id="SVGID_00000006694354069747202370000006427813581588253080_" gradientUnits="userSpaceOnUse" x1="1302.0243" y1="1659.6265" x2="1381.8207" y2="1659.6265" gradientTransform="matrix(-1 0 0 1 2435.7729 0)">
						<stop  offset="0" style="stop-color:#AB316D"/>
						<stop  offset="1" style="stop-color:#792D3D"/>
					</linearGradient>
					<path style="fill:url(#SVGID_00000006694354069747202370000006427813581588253080_);" d="M1071.649,1621.541
						c1.172,0.975-2.801,5.327-3.422,11.755c-1.21,12.477,10.648,28.164,23.493,30.127c7.594,1.159,9.938-3.329,22.63-3.989
						c7.858-0.408,14.31,0.934,18.354,2.047c3.234,13.927-1.228,27.402-10.735,33.257c-10.235,6.304-22.622,1.487-27.801-0.528
						c-3.464-1.348-14.567-5.641-19.919-16.32c-5.576-11.127,0.81-17.314-5.86-24.994c-3.364-3.874-7.955-5.719-12.128-13.094
						c-1.132-2.003-1.866-3.762-2.309-4.942C1060.849,1628.292,1069.953,1620.129,1071.649,1621.541z"/>
					
						<linearGradient id="SVGID_00000066506645852887143560000015820459155461312172_" gradientUnits="userSpaceOnUse" x1="-5526.8359" y1="-585.9792" x2="-5523.5029" y2="-556.2678" gradientTransform="matrix(0.9988 0.0496 0.0496 -0.9988 6663.8335 1368.5175)">
						<stop  offset="0" style="stop-color:#FFC444"/>
						<stop  offset="1" style="stop-color:#F36F56"/>
					</linearGradient>
					<path style="fill:url(#SVGID_00000066506645852887143560000015820459155461312172_);" d="M1109.054,1671.62
						c0,0,5.616-2.564,15.03-1.528c0.457,0.051,0.971-0.057,1.042-0.291c0.265-0.884-5.578-5.224-11.243-3.954
						c-4.022,0.905-7.306,4.49-6.823,5.474C1107.264,1671.734,1108.163,1671.729,1109.054,1671.62z"/>
				</g>
			</g>
			
				<linearGradient id="SVGID_00000020363151857606653610000003259265486251715519_" gradientUnits="userSpaceOnUse" x1="1331.2268" y1="1784.0739" x2="1384.9904" y2="1784.0739" gradientTransform="matrix(-1 0 0 1 2435.7729 0)">
				<stop  offset="0" style="stop-color:#444B8C"/>
				<stop  offset="0.9964" style="stop-color:#3E4177"/>
			</linearGradient>
			<path style="fill:url(#SVGID_00000020363151857606653610000003259265486251715519_);" d="M1104.546,1765.474l-6.297,37.2h-25.949
				l-21.517-35.141C1050.782,1767.533,1100.271,1769.405,1104.546,1765.474z"/>
			<g>
				
					<linearGradient id="SVGID_00000107574874722092394040000012229717304451038374_" gradientUnits="userSpaceOnUse" x1="1326.0427" y1="1761.6069" x2="1330.6591" y2="1981.6582" gradientTransform="matrix(-1 0 0 1 2435.7729 0)">
					<stop  offset="0" style="stop-color:#444B8C"/>
					<stop  offset="0.9964" style="stop-color:#3E4177"/>
				</linearGradient>
				<path style="fill:url(#SVGID_00000107574874722092394040000012229717304451038374_);" d="M1065.149,1937.489
					c4.896,9.431,9.97,19.145,15.25,29.115c12.122,22.989,26.284,47.388,40.354,73.094c10.354-23.63,18.569-46.85,25.489-69.275
					v-0.026l-46.403-165.332l-1.262-2.64c-0.051-0.231-0.375-0.436-0.478-0.641c-3.306-7.279-25.688,0-25.688,0L1065.149,1937.489z"
					/>
				
					<linearGradient id="SVGID_00000040545692559240605720000012769285403628424125_" gradientUnits="userSpaceOnUse" x1="1289.5316" y1="1922.3809" x2="1355.3744" y2="1922.3809" gradientTransform="matrix(-1 0 0 1 2435.7729 0)">
					<stop  offset="0" style="stop-color:#444B8C"/>
					<stop  offset="0.9964" style="stop-color:#3E4177"/>
				</linearGradient>
				<path style="opacity:0.3;fill:url(#SVGID_00000040545692559240605720000012769285403628424125_);" d="M1080.399,1966.604
					c12.122,22.989,26.284,47.388,40.354,73.094c10.354-23.63,18.569-46.85,25.489-69.275v-0.026l-46.403-165.332
					c-4.536,0.999-15.077,5.792-13.744,28.32c1.692,29.063,32.609,80.321,15.105,100.824
					C1094.305,1942.282,1086.523,1954.25,1080.399,1966.604z"/>
			</g>
			<polygon style="fill:#D8DEE8;" points="972.968,1722.905 1023.862,1712.39 1077.664,1767.972 1041.131,1796.89 			"/>
			<polygon style="fill:#D8DEE8;" points="1119.574,1716.349 1089.87,1767.707 1121.06,1788.18 1155.989,1729.215 			"/>
			<g>
				
					<linearGradient id="SVGID_00000132779332158731484470000006703324071308189066_" gradientUnits="userSpaceOnUse" x1="1336.4432" y1="2019.2849" x2="1389.1111" y2="1875.9119" gradientTransform="matrix(0.9799 -0.1994 0.1994 0.9799 -643.9884 -32.047)">
					<stop  offset="0" style="stop-color:#444B8C"/>
					<stop  offset="0.9964" style="stop-color:#3E4177"/>
				</linearGradient>
				<path style="fill:url(#SVGID_00000132779332158731484470000006703324071308189066_);" d="M1145.643,1550.059
					c-22.352-7.847-51.505-16.115-67.346-15.533c-0.63-0.15-1.289-0.129-1.98,0.082c-0.054,0.017-0.112,0.038-0.166,0.055
					c-0.057,0.006-0.118,0.009-0.174,0.014c-0.719,0.075-1.333,0.314-1.855,0.698c-14.81,5.654-38.414,24.655-55.924,40.612
					c-18.4,16.767,22.083,41.129,22.083,41.129l51.051-6.94c0.002,0.006,0.009,0.021,0.009,0.021l0.168-0.046l0.172-0.023
					c0,0-0.001-0.017,0-0.023l49.704-13.558C1141.385,1596.546,1169.131,1558.304,1145.643,1550.059z"/>
				
					<linearGradient id="SVGID_00000095339556434873454690000004790180224527531430_" gradientUnits="userSpaceOnUse" x1="2408.095" y1="1671.6228" x2="2443.8481" y2="1574.2952" gradientTransform="matrix(1 0 0 1 -1332.9938 0)">
					<stop  offset="0" style="stop-color:#444B8C"/>
					<stop  offset="0.9964" style="stop-color:#3E4177"/>
				</linearGradient>
				<path style="fill:url(#SVGID_00000095339556434873454690000004790180224527531430_);" d="M1041.131,1617.115
					c0,0,86.588,9.762,103.72,0c17.132-9.762,0-25.852,0-25.852L1041.131,1617.115z"/>
				
					<linearGradient id="SVGID_00000155105761554893985100000015708618073946598332_" gradientUnits="userSpaceOnUse" x1="2398.2383" y1="1672.7079" x2="2437.689" y2="1565.3148" gradientTransform="matrix(1 0 0 1 -1332.9938 0)">
					<stop  offset="0" style="stop-color:#FFC444"/>
					<stop  offset="0.9964" style="stop-color:#F36F56"/>
				</linearGradient>
				<path style="fill:url(#SVGID_00000155105761554893985100000015708618073946598332_);" d="M1034.766,1613.421l113.062-27.319
					l-1.135,7.143l-105.561,23.87C1041.131,1617.115,1035.4,1616.42,1034.766,1613.421z"/>
				
					<linearGradient id="SVGID_00000062190621554850257770000001108267122880972179_" gradientUnits="userSpaceOnUse" x1="1629.5216" y1="1882.9048" x2="1660.5083" y2="1798.5526" gradientTransform="matrix(0.9885 -0.1513 0.1513 0.9885 -810.3046 -10.0527)">
					<stop  offset="0" style="stop-color:#FFC444"/>
					<stop  offset="0.9964" style="stop-color:#F36F56"/>
				</linearGradient>
				<path style="fill:url(#SVGID_00000062190621554850257770000001108267122880972179_);" d="M1106.307,1557.36
					c-11.948,2.047-15.679-3.503-15.679-3.503s-1.96,6.422-13.973,8.042c1.031,5.555,1.894,10.885,2.574,15.401
					c0.522,3.47,2.57,6.563,5.693,8.598c3.123,2.035,7.065,2.843,10.954,2.248c3.594-0.55,7.364-2.539,9.735-5.415
					c2.372-2.876,3.356-6.434,2.816-9.901C1107.726,1568.317,1106.985,1562.969,1106.307,1557.36z"/>
			</g>
			<g>
				<g>
					
						<linearGradient id="SVGID_00000093150884223180157160000007330382645995067527_" gradientUnits="userSpaceOnUse" x1="2253.3035" y1="2832.3416" x2="2655.6917" y2="848.835" gradientTransform="matrix(1 0 0 1 -1332.9938 0)">
						<stop  offset="0" style="stop-color:#FFC444"/>
						<stop  offset="0.9964" style="stop-color:#F36F56"/>
					</linearGradient>
					<path style="fill:url(#SVGID_00000093150884223180157160000007330382645995067527_);" d="M1318.146,2093.432
						c0,5.309-0.061,10.586-0.154,15.864c-0.183,15.772-0.644,31.482-1.319,46.947c-1.687,39.951-4.664,78.49-8.01,113.255
						c-1.656,17.306-3.406,33.661-5.154,48.788c-0.767,6.628-1.504,13.041-2.271,19.177c-5.338,44.308-10.032,75.177-10.371,83.277
						c-1.748,39.89-409.389,6.137-444.676,0c-20.343-3.529-18.748-61.307-15.219-118.932c1.043-16.815,2.208-33.63,3.098-49.064
						c1.259-23.32,1.811-43.51-0.153-55.999c-0.337-2.086-0.674-4.081-1.043-6.014c-3.56-19.607-8.408-31.635-12.642-47.622
						c-4.234-15.925-7.887-35.839-8.991-71.157c-0.061-1.411-0.091-2.854-0.123-4.296c-0.121-4.511,0.614-8.96,2.087-13.102
						c2.178-6.168,5.984-11.722,11.108-16.048c64.958-54.311,30.377-298.067,30.377-298.067c7.457-7.395,22.706-12.12,39.798-15.096
						c0.091-0.031,0.183-0.031,0.276-0.062c16.938-2.946,35.655-4.112,50.353-4.296c10.339-0.153,18.686,0.153,23.043,0.706
						c16.876,2.056,109.696,251.058,140.41,261.767c30.716,10.74,41.547-254.035,46.518-260.57
						c2.026-2.639,18.258-3.744,38.724-1.78c15.893,1.534,34.335,4.879,50.599,10.801c14.114,5.155,26.633,12.212,34.365,21.632
						C1293.077,1770.941,1318.544,1933.445,1318.146,2093.432z"/>
					<g>
						<g>
							<path style="fill:#FFFFFF;" d="M1027.228,2111.597l-49.095,0.92c-0.061-3.191-0.153-6.413-0.276-9.666
								c-5.463-144.001-71.802-344.277-83.093-377.569c16.938-2.946,35.655-4.112,50.353-4.296
								c18.47,55.354,74.808,234.305,81.527,373.826C1026.921,2100.49,1027.135,2106.074,1027.228,2111.597z"/>
						</g>
						<g>
							<path style="fill:#FFFFFF;" d="M1258.496,2094.261c-1.566,10.126-3.59,18.902-6.076,25.959l-46.303-16.324
								c1.534-4.388,2.854-9.788,3.928-16.078c13.102-76.097-6.168-281.283-16.232-366.707c15.893,1.534,34.335,4.879,50.599,10.801
								C1252.389,1802.945,1272.641,2003.436,1258.496,2094.261z"/>
						</g>
						<g>
							<path style="fill:#FFFFFF;" d="M1317.991,2109.296c-0.183,15.772-0.644,31.482-1.319,46.947l-1.566,4.112
								c-101.319-38.601-232.003-27.37-333.721-7.794c-68.671,13.194-124.148,30.163-148.511,38.171
								c-3.56-19.607-8.408-31.635-12.642-47.622c24.855-8.193,73.612-23.074,134.458-35.686c7.548-1.565,15.281-3.099,23.167-4.572
								c15.679-2.946,32.003-5.677,48.788-8.039c58.023-8.254,121.601-12.427,183.4-6.996c16.323,1.442,32.526,3.559,48.451,6.444
								C1278.839,2097.912,1298.784,2102.852,1317.991,2109.296z"/>
						</g>
						<g>
							<path style="fill:#FFFFFF;" d="M1308.663,2269.854c-1.656,17.306-3.406,33.482-5.154,48.61
								c-5.645-1.104-14.484-2.268-25.99-3.28l-0.03-0.075c-75.698-6.781-267.966-11.682-446.517-13.278
								c1.043-16.815,2.208-33.641,3.098-49.075c40.411,0.399,128.935,1.854,218.841,4.002
								c62.718,1.504,110.769,1.716,147.713,5.168h0.031C1261.471,2265.378,1292.217,2267.246,1308.663,2269.854z"/>
						</g>
					</g>
				</g>
				
					<linearGradient id="SVGID_00000135687343420357790330000014296913899870359182_" gradientUnits="userSpaceOnUse" x1="2144.2354" y1="2082.6292" x2="2634.2317" y2="2082.6292" gradientTransform="matrix(1 0 0 1 -1332.9938 0)">
					<stop  offset="0" style="stop-color:#FFC444"/>
					<stop  offset="0.9964" style="stop-color:#F36F56"/>
				</linearGradient>
				<path style="opacity:0.3;fill:url(#SVGID_00000135687343420357790330000014296913899870359182_);" d="M1301.238,2337.464
					c-5.338,44.308-10.032,75.177-10.371,83.277c-1.748,39.89-409.389,6.137-444.676,0c-20.343-3.529-18.748-61.307-15.219-118.932
					c1.043-16.815,2.208-33.63,3.098-49.064c1.259-23.32,1.811-43.51-0.153-55.999c-0.337-2.086-0.674-4.081-1.043-6.014
					c-3.56-19.607-8.408-31.635-12.642-47.622c-4.234-15.925-7.887-35.839-8.991-71.157l1.964-17.398
					c2.178-6.168,5.984-11.722,11.108-16.048c64.958-54.311,30.377-298.067,30.377-298.067c7.457-7.395,22.706-12.12,39.798-15.096
					c0.183,0.215,0.123,0.399,0.276,0.583c0.123,0.153,0.246,0.276,0.369,0.43c19.791,22.43,40.488,59.159,37.788,116.631
					c-0.031,0.46,2.226,0.921,2.226,1.381v0.092c-3.452,75.238-10.356,184.658,20.711,262.933v0.031
					c3.452,16.662,15.218,31.911,26.081,45.106l-0.26,0.031c17.705,21.694,40.909,38.19,71.502,46.076
					c43.541,11.23,97.552,39.126,147.444,63.289h0.031c27.739,17.26,54.25,34.102,76.833,53.495l0.03-0.147
					C1286.019,2322.576,1293.967,2329.854,1301.238,2337.464z"/>
			</g>
			<g>
				
					<linearGradient id="SVGID_00000028286071788997577020000014093578914561234597_" gradientUnits="userSpaceOnUse" x1="1980.4484" y1="2276.8428" x2="1832.6173" y2="2164.7236" gradientTransform="matrix(1 0 0 1 -898.08 0)">
					<stop  offset="0.0036" style="stop-color:#26264F"/>
					<stop  offset="1" style="stop-color:#444B8C"/>
				</linearGradient>
				<path style="fill:url(#SVGID_00000028286071788997577020000014093578914561234597_);" d="M1105.46,2032.348l-211.902,17.779
					c-2.234,0.187-4.006,1.792-4.482,4.055l-60.117,285.617c-0.86,4.086,4.665,14.439,8.61,14.04l203.952-27.148
					c2.165-0.222,3.845-1.71,4.35-3.854l70.221-278.316C1117.069,2040.377,1109.734,2031.989,1105.46,2032.348z"/>
				
					<linearGradient id="SVGID_00000116211596895386385260000013052175405863873667_" gradientUnits="userSpaceOnUse" x1="-1164.1782" y1="2301.1138" x2="-1494.2455" y2="2476.7947" gradientTransform="matrix(-0.9948 0.1018 0.1018 0.9948 -548.3995 -26.8702)">
					<stop  offset="0.0036" style="stop-color:#26264F"/>
					<stop  offset="1" style="stop-color:#444B8C"/>
				</linearGradient>
				<path style="fill:url(#SVGID_00000116211596895386385260000013052175405863873667_);" d="M1109.913,2039.394l-212.293,17.518
					c-2.238,0.185-4.013,1.789-4.49,4.055l-60.188,285.888c-0.861,4.091,2.727,8.39,6.675,7.991l206.277-20.822
					c2.169-0.219,3.852-1.706,4.358-3.852l66.656-282.768C1117.885,2043.262,1114.195,2039.04,1109.913,2039.394z"/>
				
					<linearGradient id="SVGID_00000059281844813527866420000002188476103929782421_" gradientUnits="userSpaceOnUse" x1="4835.5767" y1="2042.7894" x2="4924.1812" y2="2042.7894" gradientTransform="matrix(-1 0 0 1 5892.1655 0)">
					<stop  offset="0.0036" style="stop-color:#E38DDD"/>
					<stop  offset="1" style="stop-color:#9571F6"/>
				</linearGradient>
				<path style="fill:url(#SVGID_00000059281844813527866420000002188476103929782421_);" d="M1051.308,2052.792l5.206-23.569
					c0.47-2.128-1.35-4.284-3.531-4.184l-77.974,3.563c-1.324,0.061-2.377,1.004-2.604,2.333l-4.375,25.601
					c-0.359,2.103,1.446,4.149,3.53,3.999l77.192-5.533C1050.021,2054.911,1051.033,2054.037,1051.308,2052.792z"/>
				<path style="opacity:0.3;fill:#FFFFFF;" d="M950.192,2286.027c7.617-46.961-18.755-77.189-0.59-113.684
					c25.84-51.914,99.978-31.934,116.769-74.502c4.539-11.506,5.137-28.445-6.664-54.307l50.206-4.139
					c4.283-0.353,7.972,3.863,6.995,8.01l-66.656,282.768c-0.505,2.148-2.189,3.631-4.358,3.852l-127.278,12.852
					C938.482,2326.216,947.097,2305.115,950.192,2286.027z"/>
			</g>
			
				<linearGradient id="SVGID_00000040575213377346568920000003033865205292591525_" gradientUnits="userSpaceOnUse" x1="2180.1914" y1="2212.5635" x2="2182.2371" y2="2443.7188" gradientTransform="matrix(1 0 0 1 -1332.9938 0)">
				<stop  offset="0" style="stop-color:#FFC444"/>
				<stop  offset="0.9964" style="stop-color:#F36F56"/>
			</linearGradient>
			<path style="fill:url(#SVGID_00000040575213377346568920000003033865205292591525_);" d="M798.139,2214.417l26.646-1.488
				c0,0,29.194-24.43,42.482-22.906c13.287,1.524,33.165,10.744,35.588,12.679c2.424,1.934-7.273,12.768-16.968,11.715
				c-9.696-1.054-31.332,4.177-35.202,12.719c-3.869,8.541-20.662,13.7-23.515,8.69l-35.819,7.11L798.139,2214.417z"/>
			
				<linearGradient id="SVGID_00000148662651624362551990000006933132493258370222_" gradientUnits="userSpaceOnUse" x1="4178.7124" y1="2253.2026" x2="4562.6694" y2="1366.0275" gradientTransform="matrix(1 0 0 1 -3590.0471 0)">
				<stop  offset="0" style="stop-color:#444B8C"/>
				<stop  offset="0.9964" style="stop-color:#3E4177"/>
			</linearGradient>
			<path style="fill:url(#SVGID_00000148662651624362551990000006933132493258370222_);" d="M806.2,2205.094
				c1.865,21.86-2.896,36.706-10.841,46.887c-35.218,45.126-154.906,26.674-226.042-33.771
				c-52.656-44.741-80.537-114.215-79.507-176.465c2.01-121.468,114.58-240.49,282.029-281.611
				c24.787,74.095,49.574,148.189,74.361,222.285c-103.235,1.575-165.955,79.398-156.654,134.953
				C696.474,2158.761,744.744,2195.989,806.2,2205.094z"/>
		</g>
	</g>
</g>
</svg>
