<?xml version="1.0" encoding="utf-8"?>
<!-- Generator: Adobe Illustrator 27.5.0, SVG Export Plug-In . SVG Version: 6.00 Build 0)  -->
<svg version="1.1" xmlns="http://www.w3.org/2000/svg" xmlns:xlink="http://www.w3.org/1999/xlink" x="0px" y="0px"
	 viewBox="0 0 500 500" style="enable-background:new 0 0 500 500;" xml:space="preserve">
<g id="BACKGROUND">
	<rect style="fill:#A1D1D1;" width="500" height="500"/>
</g>
<g id="OBJECTS">
	<g>
		<defs>
			<rect id="SVGID_1_" width="500" height="500"/>
		</defs>
		<clipPath id="SVGID_00000120547136002129744120000000065233638334693298_">
			<use xlink:href="#SVGID_1_"  style="overflow:visible;"/>
		</clipPath>
		<g style="clip-path:url(#SVGID_00000120547136002129744120000000065233638334693298_);">
			<path style="fill:#86ADAD;" d="M443.456,392.309l-2.737,0.517l-2.67-14.142l-13.436,2.536l-4.73-4.932l-10.789-80.175
				c-0.655-4.866-2.899-9.379-6.383-12.838l-41.165-49.446V104.786c0-7.289-5.909-13.197-13.197-13.197H289.65
				c-3.439-5.071-8.46-8.977-14.35-11.025v-0.848c0-12.035-9.756-21.792-21.792-21.792h0c-12.035,0-21.792,9.756-21.792,21.792
				v0.848c-5.891,2.048-10.911,5.954-14.35,11.025h-56.559c-7.289,0-13.197,5.909-13.197,13.197v127.89l-42.124,50.599
				c-3.484,3.459-5.728,7.973-6.383,12.838l-10.789,80.175l-4.73,4.932l-13.436-2.536l-2.67,14.142l-2.737-0.517L39.68,525.066
				l87.321,16.484l25.061-132.757l-3.835-0.724l2.67-14.142l-6.101-1.152c2.912-5.063,6.518-12.122,9.697-20.619
				c1.876,1.024,4.026,1.607,6.313,1.607h187.542c1.966,0,3.824-0.441,5.5-1.212c3.143,8.322,6.684,15.239,9.552,20.224
				l-6.101,1.152l2.67,14.142l-3.835,0.724l25.061,132.757l87.321-16.484L443.456,392.309z M135.219,315.064
				c0.155,0.032,0.312,0.049,0.47,0.062l-0.663,0.746L135.219,315.064z M373.172,315.871l-0.663-0.746
				c0.158-0.012,0.315-0.03,0.47-0.062L373.172,315.871z M240.221,78.056c0-7.339,5.949-13.288,13.288-13.288h0
				c7.339,0,13.288,5.949,13.288,13.288v0.938c-0.308-0.01-0.616-0.023-0.926-0.023h-24.723c-0.311,0-0.618,0.014-0.926,0.023
				V78.056z"/>
			<g>
				<g>
					<path style="fill:#0B3C53;" d="M340.152,366.588H152.61c-7.289,0-13.197-5.909-13.197-13.197V97.611
						c0-7.289,5.909-13.197,13.197-13.197h187.542c7.289,0,13.197,5.909,13.197,13.197v255.78
						C353.349,360.679,347.441,366.588,340.152,366.588z"/>
					<g>
						<path style="fill:#FFFFFF;" d="M340.93,349.557H151.831V96.636H340.93V349.557z"/>
						<g>
							<path style="fill:#BDBFC2;" d="M261.64,156.488h-97.637c-2.022,0-3.662-1.639-3.662-3.662l0,0
								c0-2.022,1.639-3.662,3.662-3.662h97.637c2.022,0,3.662,1.639,3.662,3.662l0,0
								C265.302,154.849,263.663,156.488,261.64,156.488z"/>
							<path style="fill:#BDBFC2;" d="M328.711,249.058H192.843c-2.022,0-3.662-1.639-3.662-3.662l0,0
								c0-2.022,1.639-3.662,3.662-3.662h135.867c2.022,0,3.662,1.639,3.662,3.662l0,0
								C332.372,247.419,330.733,249.058,328.711,249.058z"/>
							<path style="fill:#BDBFC2;" d="M328.711,273.562H192.843c-2.022,0-3.662-1.639-3.662-3.662l0,0
								c0-2.022,1.639-3.662,3.662-3.662h135.867c2.022,0,3.662,1.639,3.662,3.662l0,0
								C332.372,271.923,330.733,273.562,328.711,273.562z"/>
							<path style="fill:#BDBFC2;" d="M328.711,296.809H192.843c-2.022,0-3.662-1.639-3.662-3.662l0,0
								c0-2.022,1.639-3.662,3.662-3.662h135.867c2.022,0,3.662,1.639,3.662,3.662l0,0
								C332.372,295.17,330.733,296.809,328.711,296.809z"/>
							<path style="fill:#BDBFC2;" d="M185.52,172.729h-21.516c-2.022,0-3.662-1.639-3.662-3.662l0,0
								c0-2.022,1.639-3.662,3.662-3.662h21.516c2.022,0,3.662,1.64,3.662,3.662l0,0C189.181,171.09,187.542,172.729,185.52,172.729
								z"/>
							<path style="fill:#BDBFC2;" d="M185.52,184.434h-21.516c-2.022,0-3.662-1.639-3.662-3.662l0,0
								c0-2.022,1.639-3.662,3.662-3.662h21.516c2.022,0,3.662,1.639,3.662,3.662l0,0
								C189.181,182.795,187.542,184.434,185.52,184.434z"/>
							<path style="fill:#BDBFC2;" d="M185.52,196.14h-21.516c-2.022,0-3.662-1.639-3.662-3.662l0,0
								c0-2.022,1.639-3.662,3.662-3.662h21.516c2.022,0,3.662,1.639,3.662,3.662l0,0C189.181,194.5,187.542,196.14,185.52,196.14z"
								/>
							<path style="fill:#BDBFC2;" d="M185.52,207.845h-21.516c-2.022,0-3.662-1.639-3.662-3.662l0,0
								c0-2.022,1.639-3.662,3.662-3.662h21.516c2.022,0,3.662,1.639,3.662,3.662l0,0
								C189.181,206.206,187.542,207.845,185.52,207.845z"/>
							<path style="fill:#BDBFC2;" d="M185.52,219.55h-21.516c-2.022,0-3.662-1.639-3.662-3.662l0,0
								c0-2.022,1.639-3.662,3.662-3.662h21.516c2.022,0,3.662,1.639,3.662,3.662l0,0C189.181,217.911,187.542,219.55,185.52,219.55
								z"/>
							
								<line style="fill:none;stroke:#BDBFC2;stroke-width:0.4448;stroke-miterlimit:10;" x1="192.176" y1="170.746" x2="265.302" y2="170.746"/>
							
								<line style="fill:none;stroke:#BDBFC2;stroke-width:0.4448;stroke-miterlimit:10;" x1="192.176" y1="184.434" x2="265.302" y2="184.434"/>
							
								<line style="fill:none;stroke:#BDBFC2;stroke-width:0.4448;stroke-miterlimit:10;" x1="192.176" y1="196.14" x2="265.302" y2="196.14"/>
							
								<line style="fill:none;stroke:#BDBFC2;stroke-width:0.4448;stroke-miterlimit:10;" x1="192.176" y1="207.845" x2="265.302" y2="207.845"/>
							
								<line style="fill:none;stroke:#BDBFC2;stroke-width:0.4448;stroke-miterlimit:10;" x1="192.176" y1="220.434" x2="265.302" y2="220.434"/>
							
								<rect x="165.737" y="238.807" style="fill:none;stroke:#BDBFC2;stroke-width:1.007;stroke-miterlimit:10;" width="13.178" height="13.179"/>
							
								<rect x="165.737" y="263.311" style="fill:none;stroke:#BDBFC2;stroke-width:1.007;stroke-miterlimit:10;" width="13.178" height="13.179"/>
							
								<rect x="165.737" y="286.558" style="fill:none;stroke:#BDBFC2;stroke-width:1.007;stroke-miterlimit:10;" width="13.178" height="13.179"/>
							
								<line style="fill:none;stroke:#BDBFC2;stroke-width:2.2241;stroke-miterlimit:10;" x1="174.762" y1="324.02" x2="228.739" y2="324.02"/>
							
								<line style="fill:none;stroke:#BDBFC2;stroke-width:2.2241;stroke-miterlimit:10;" x1="257.497" y1="324.02" x2="311.474" y2="324.02"/>
							<rect x="277.539" y="164.981" style="fill:none;stroke:#BDBFC2;stroke-miterlimit:10;" width="9.053" height="9.053"/>
							<rect x="293.158" y="164.981" style="fill:none;stroke:#BDBFC2;stroke-miterlimit:10;" width="9.053" height="9.053"/>
							<rect x="308.776" y="164.981" style="fill:none;stroke:#BDBFC2;stroke-miterlimit:10;" width="9.053" height="9.053"/>
							<g>
								<rect x="277.539" y="191.613" style="fill:none;stroke:#BDBFC2;stroke-miterlimit:10;" width="9.053" height="9.053"/>
								<rect x="293.158" y="191.613" style="fill:none;stroke:#BDBFC2;stroke-miterlimit:10;" width="9.053" height="9.053"/>
								<rect x="308.776" y="191.613" style="fill:none;stroke:#BDBFC2;stroke-miterlimit:10;" width="9.053" height="9.053"/>
							</g>
							<g>
								<rect x="277.539" y="215.024" style="fill:none;stroke:#BDBFC2;stroke-miterlimit:10;" width="9.053" height="9.053"/>
								<rect x="293.158" y="215.024" style="fill:none;stroke:#BDBFC2;stroke-miterlimit:10;" width="9.053" height="9.053"/>
								<rect x="308.776" y="215.024" style="fill:none;stroke:#BDBFC2;stroke-miterlimit:10;" width="9.053" height="9.053"/>
							</g>
							
								<text transform="matrix(1 0 0 1 204.439 135.7539)" style="fill:#0B3C53; font-family:'BebasNeueBold'; font-size:20.8365px;">REGISTRATION</text>
						</g>
					</g>
					<g>
						<path style="fill:#FFCC00;" d="M279.458,107.552h-68.293c-3.828,0-6.93-3.103-6.93-6.93v-0.109
							c0-15.859,12.856-28.715,28.715-28.715h24.723c15.859,0,28.715,12.856,28.715,28.715v0.109
							C286.388,104.449,283.285,107.552,279.458,107.552z"/>
						<path style="fill:#E8BA00;" d="M279.458,102.291h-68.293c-3.245,0-5.961-2.233-6.715-5.244
							c-0.137,1.137-0.215,2.291-0.215,3.465v0.109c0,3.828,3.103,6.93,6.93,6.93h68.293c3.828,0,6.93-3.103,6.93-6.93v-0.109
							c0-1.174-0.079-2.328-0.215-3.465C285.418,100.058,282.702,102.291,279.458,102.291z"/>
						<path style="fill:#FFCC00;" d="M245.311,50.749L245.311,50.749c-12.035,0-21.792,9.757-21.792,21.792v13.288h43.583V72.54
							C267.103,60.505,257.346,50.749,245.311,50.749z M258.599,78.984h-26.576v-8.102c0-7.339,5.949-13.288,13.288-13.288l0,0
							c7.339,0,13.288,5.949,13.288,13.288V78.984z"/>
					</g>
				</g>
				<g>
					<g>
						<g>
							<g>
								<path style="fill:#FDBA8A;" d="M154.016,322.931l2.315-14.112c2.315-14.109,8.009-30.183,9.756-51.308
									c1.746-21.125-10.044-21.43-10.044-21.43c-6.18-1.29-13.251,5.045-16.631,11.626v-22.207l-42.124,50.598
									c-3.484,3.459-5.728,7.973-6.383,12.838l-10.789,80.175l-12.681,13.223l63.594,12.005
									C131.03,394.34,154.651,362.728,154.016,322.931z M134.76,275.505c0.007,0.089,0.014,0.176,0.023,0.256
									c0.32,2.824-2.031,15.782-4.744,29.323l-3.21,3.613L134.76,275.505z"/>
								<path style="fill:#FDD4B6;" d="M160.01,264.515l-17.83-3.366l2.803-14.846c0.929-4.924,5.674-8.162,10.598-7.232l0,0
									c4.924,0.93,8.162,5.674,7.232,10.598L160.01,264.515z"/>
								<path style="fill:#D49C73;" d="M139.412,247.708c0,0-11.363,31.128-15.388,55.872c-0.585,3.599,3.764,5.851,6.361,3.292h0
									c0.561-0.553,0.933-1.261,1.067-2.037c0.982-5.714,5.167-30.153,5.116-31.079
									C136.51,272.705,139.412,247.708,139.412,247.708z"/>
							</g>
							<g>
								<path style="fill:#E3A77B;" d="M149.312,237.16c-0.124,0.07-0.249,0.134-0.371,0.209c0.484-0.016,0.979,0.008,1.484,0.069
									C149.984,237.296,149.603,237.21,149.312,237.16z"/>
								<path style="fill:#E3A77B;" d="M154.016,322.931l2.315-14.112c2.315-14.109,8.009-30.183,9.756-51.308
									c1.746-21.125-10.044-21.43-10.044-21.43c-0.292-0.061-0.579-0.104-0.864-0.138c3.21,1.035,9.627,5.104,8.307,21.077
									c-1.746,21.124-7.44,37.198-9.756,51.307l-2.316,14.112c0.635,39.797-22.986,71.409-22.986,71.409l2.602,0.491
									C131.03,394.34,154.651,362.728,154.016,322.931z"/>
							</g>
							<g>
								
									<rect x="58.826" y="378.904" transform="matrix(0.9826 0.1855 -0.1855 0.9826 74.4322 -11.7323)" style="fill:#FFFFFF;" width="82.175" height="25.999"/>
								
									<rect x="43.242" y="392.204" transform="matrix(0.9826 0.1855 -0.1855 0.9826 86.8064 -8.2841)" style="fill:#0B3C53;" width="88.863" height="135.102"/>
							</g>
						</g>
					</g>
					<g>
						<g>
							<g>
								<path style="fill:#FDBA8A;" d="M360.772,394.34l63.594-12.005l-12.681-13.223l-10.789-80.175
									c-0.655-4.866-2.899-9.379-6.383-12.838l-42.124-50.598v22.207c-3.38-6.581-10.45-12.916-16.631-11.626
									c0,0-11.791,0.304-10.044,21.43c1.746,21.124,7.44,37.198,9.756,51.308l2.315,14.112
									C337.152,362.728,360.772,394.34,360.772,394.34z M364.974,308.696l-3.21-3.613c-2.713-13.541-5.064-26.5-4.744-29.323
									c0.009-0.079,0.016-0.167,0.023-0.256L364.974,308.696z"/>
								<path style="fill:#FDD4B6;" d="M331.792,264.515l17.83-3.366l-2.803-14.846c-0.93-4.924-5.674-8.162-10.598-7.232h0
									c-4.924,0.93-8.162,5.674-7.232,10.598L331.792,264.515z"/>
								<path style="fill:#D49C73;" d="M352.39,247.708c0,0,11.363,31.128,15.388,55.872c0.585,3.599-3.764,5.851-6.361,3.292l0,0
									c-0.561-0.553-0.934-1.261-1.067-2.037c-0.982-5.714-5.167-30.153-5.116-31.079
									C355.293,272.705,352.39,247.708,352.39,247.708z"/>
							</g>
							<g>
								<path style="fill:#E3A77B;" d="M342.49,237.16c0.124,0.07,0.249,0.134,0.371,0.209c-0.484-0.016-0.979,0.008-1.484,0.069
									C341.818,237.296,342.199,237.21,342.49,237.16z"/>
								<path style="fill:#E3A77B;" d="M337.787,322.931l-2.315-14.112c-2.316-14.109-8.01-30.183-9.756-51.308
									c-1.746-21.125,10.044-21.43,10.044-21.43c0.292-0.061,0.579-0.104,0.864-0.138c-3.21,1.035-9.627,5.104-8.307,21.077
									c1.746,21.124,7.44,37.198,9.756,51.307l2.315,14.112c-0.635,39.797,22.986,71.409,22.986,71.409l-2.602,0.491
									C360.772,394.34,337.152,362.728,337.787,322.931z"/>
							</g>
							<g>
								
									<rect x="350.801" y="378.904" transform="matrix(-0.9826 0.1855 -0.1855 -0.9826 849.6738 704.3102)" style="fill:#FFFFFF;" width="82.175" height="25.999"/>
								
									<rect x="359.697" y="392.204" transform="matrix(-0.9826 0.1855 -0.1855 -0.9826 886.5284 836.563)" style="fill:#0B3C53;" width="88.863" height="135.102"/>
							</g>
						</g>
					</g>
				</g>
			</g>
		</g>
	</g>
</g>
<g id="DESIGNED_BY_FREEPIK">
	<g>
		<g id="XMLID_1_">
			<g id="XMLID_20_">
				<path id="XMLID_28_" style="fill:#252A30;" d="M260.104,464.666c-0.432,0.443-0.803,0.931-1.108,1.453l-0.465-0.241
					c-0.067-0.298-0.349-0.503-0.659-0.466c-0.331,0.039-0.568,0.339-0.529,0.67c0.039,0.331,0.339,0.568,0.67,0.529
					c0.066-0.008,0.127-0.026,0.184-0.052l0.451,0.234c-0.251,0.554-0.433,1.139-0.539,1.744l0.747,0.132
					c0.23-1.306,0.85-2.507,1.792-3.472L260.104,464.666z"/>
				<path id="XMLID_27_" style="fill:#252A30;" d="M265.592,462.364c-0.171,0-0.341,0.006-0.51,0.017l-0.074-0.626
					c0.188-0.149,0.296-0.389,0.266-0.645c-0.046-0.393-0.402-0.674-0.795-0.628c-0.393,0.046-0.674,0.402-0.628,0.795
					c0.03,0.254,0.189,0.461,0.404,0.564l0.074,0.624c-0.714,0.116-1.403,0.332-2.06,0.646l0.327,0.684
					c0.934-0.447,1.942-0.673,2.995-0.673c0.496,0,0.993,0.053,1.475,0.158l0.161-0.741
					C266.692,462.423,266.142,462.364,265.592,462.364z"/>
				<path id="XMLID_26_" style="fill:#252A30;" d="M272.194,464.911c0.331-0.04,0.566-0.341,0.526-0.672
					c-0.04-0.331-0.341-0.566-0.672-0.526c-0.309,0.038-0.535,0.304-0.53,0.609l-0.416,0.363c-0.418-0.43-0.889-0.813-1.408-1.139
					l-0.404,0.641c1.134,0.715,2.021,1.726,2.563,2.925l0.69-0.313c-0.251-0.554-0.567-1.072-0.942-1.545l0.402-0.351
					C272.065,464.916,272.129,464.919,272.194,464.911z"/>
				<path id="XMLID_25_" style="fill:#252A30;" d="M265.044,472.572c-0.386,0.023-0.775,0.035-1.157,0.035
					c-0.88,0-1.733-0.061-2.478-0.179c-0.39-0.062-0.846-0.155-1.27-0.292c1.046,1.861,3.069,3.125,5.388,3.125
					c2.855,0,5.262-1.916,5.95-4.504c-0.682,0.449-1.505,0.825-2.459,1.123C267.839,472.248,266.463,472.487,265.044,472.572z"/>
				<path id="XMLID_21_" style="fill:#252A30;" d="M265.592,463.88c-3.352,0-6.08,2.666-6.08,5.944c0,0.426,0.046,0.849,0.137,1.261
					c0.673,0.483,2.706,0.89,5.348,0.731c2.879-0.173,5.297-0.957,6.672-2.158c-0.006-0.195-0.021-0.39-0.045-0.582
					C271.244,466.114,268.65,463.88,265.592,463.88z M263.432,470.395c-1.02,0-1.85-0.83-1.85-1.85c0-1.02,0.83-1.85,1.85-1.85
					c1.02,0,1.85,0.83,1.85,1.85C265.282,469.565,264.452,470.395,263.432,470.395z M268.17,469.487c-0.75,0-1.36-0.61-1.36-1.36
					s0.61-1.361,1.36-1.361c0.75,0,1.361,0.61,1.361,1.361S268.92,469.487,268.17,469.487z"/>
			</g>
			<path id="XMLID_18_" style="fill:#252A30;" d="M281.595,465.747c-0.295-0.116-0.805-0.309-1.382-0.237
				c-0.551,0.068-0.844,0.34-0.844,1.007v0.866h2.228v1.717h-2.228v5.455h-1.932V469.1h-1.34v-1.717h1.34v-0.888
				c0-1.68,0.896-2.783,2.568-2.783c0.643,0,1.157,0.122,1.59,0.308L281.595,465.747z"/>
			<path id="XMLID_16_" style="fill:#252A30;" d="M286.298,469.079c-0.177-0.03-0.358-0.046-0.526-0.046
				c-0.896,0-1.51,0.548-1.51,1.613v3.908h-1.932v-7.172h1.873v0.785c0.451-0.674,1.14-0.977,2.021-0.977
				c0.414,0,0.848,0.128,1.094,0.337L286.298,469.079z"/>
			<path id="XMLID_13_" style="fill:#252A30;" d="M293.965,470.957c0,0.222-0.015,0.489-0.037,0.651h-5.085
				c0.207,1.036,0.933,1.488,1.843,1.488c0.622,0,1.295-0.252,1.813-0.688l1.133,1.243c-0.814,0.748-1.85,1.088-3.057,1.088
				c-2.198,0-3.723-1.495-3.723-3.753c0-2.257,1.48-3.797,3.627-3.797C292.544,467.19,293.958,468.722,293.965,470.957z
				 M288.851,470.291h3.175c-0.177-0.918-0.733-1.436-1.562-1.436C289.554,468.855,289.021,469.403,288.851,470.291z"/>
			<path id="XMLID_10_" style="fill:#252A30;" d="M301.618,470.957c0,0.222-0.015,0.489-0.037,0.651h-5.085
				c0.207,1.036,0.933,1.488,1.843,1.488c0.622,0,1.295-0.252,1.814-0.688l1.132,1.243c-0.814,0.748-1.85,1.088-3.057,1.088
				c-2.198,0-3.723-1.495-3.723-3.753c0-2.257,1.48-3.797,3.627-3.797C300.197,467.19,301.611,468.722,301.618,470.957z
				 M296.504,470.291h3.175c-0.178-0.918-0.733-1.436-1.562-1.436C297.207,468.855,296.674,469.403,296.504,470.291z"/>
			<path id="XMLID_7_" style="fill:#252A30;" d="M309.964,470.965c0,2.154-1.495,3.775-3.471,3.775
				c-0.962,0-1.643-0.378-2.109-0.933v3.708h-1.924v-10.133h1.887v0.792c0.466-0.585,1.155-0.984,2.139-0.984
				C308.469,467.19,309.964,468.811,309.964,470.965z M304.287,470.965c0,1.132,0.748,1.976,1.843,1.976
				c1.14,0,1.85-0.881,1.85-1.976c0-1.095-0.71-1.976-1.85-1.976C305.035,468.989,304.287,469.832,304.287,470.965z"/>
			<path id="XMLID_4_" style="fill:#252A30;" d="M313.068,465.036c0,0.696-0.54,1.229-1.236,1.229c-0.696,0-1.229-0.533-1.229-1.229
				c0-0.696,0.533-1.243,1.229-1.243C312.527,463.793,313.068,464.341,313.068,465.036z M312.809,474.555h-1.932v-7.172h1.932
				V474.555z"/>
			<path id="XMLID_2_" style="fill:#252A30;" d="M316.032,469.936l2.701-2.554h2.368l-3.479,3.375l3.501,3.797h-2.376l-2.716-2.901
				v2.901H314.1v-10.658h1.932V469.936z"/>
		</g>
		<g>
			<path style="fill:#252A30;" d="M184.412,474.49v-1.055c-0.527,0.718-1.391,1.23-2.387,1.23c-1.846,0-3.149-1.406-3.149-3.706
				c0-2.256,1.289-3.721,3.149-3.721c0.952,0,1.816,0.469,2.387,1.245v-3.765h1.099v9.77H184.412z M184.412,472.571v-3.208
				c-0.395-0.615-1.245-1.143-2.124-1.143c-1.421,0-2.27,1.172-2.27,2.739c0,1.567,0.85,2.724,2.27,2.724
				C183.168,473.684,184.017,473.186,184.412,472.571z"/>
			<path style="fill:#252A30;" d="M186.932,470.945c0-2.051,1.465-3.706,3.486-3.706c2.139,0,3.398,1.67,3.398,3.794v0.279h-5.727
				c0.088,1.333,1.025,2.446,2.549,2.446c0.805,0,1.626-0.322,2.182-0.893l0.527,0.718c-0.703,0.703-1.655,1.084-2.812,1.084
				C188.44,474.665,186.932,473.157,186.932,470.945z M190.403,468.147c-1.509,0-2.256,1.274-2.314,2.358h4.643
				C192.718,469.451,192.015,468.147,190.403,468.147z"/>
			<path style="fill:#252A30;" d="M194.607,473.552l0.571-0.791c0.469,0.542,1.362,1.011,2.329,1.011c1.084,0,1.67-0.513,1.67-1.216
				c0-1.714-4.38-0.659-4.38-3.281c0-1.098,0.952-2.036,2.636-2.036c1.201,0,2.051,0.454,2.622,1.026l-0.513,0.762
				c-0.424-0.513-1.201-0.894-2.109-0.894c-0.967,0-1.567,0.483-1.567,1.113c0,1.552,4.38,0.527,4.38,3.281
				c0,1.187-0.952,2.139-2.783,2.139C196.306,474.665,195.325,474.314,194.607,473.552z"/>
			<path style="fill:#252A30;" d="M201.477,465.672c0-0.41,0.337-0.747,0.732-0.747c0.41,0,0.747,0.337,0.747,0.747
				c0,0.41-0.337,0.732-0.747,0.732C201.814,466.404,201.477,466.082,201.477,465.672z M201.667,474.49v-7.075h1.099v7.075H201.667z
				"/>
			<path style="fill:#252A30;" d="M204.582,476.306l0.556-0.82c0.586,0.703,1.289,0.967,2.3,0.967c1.172,0,2.27-0.571,2.27-2.124
				v-1.011c-0.513,0.718-1.377,1.26-2.373,1.26c-1.845,0-3.149-1.377-3.149-3.662c0-2.27,1.289-3.677,3.149-3.677
				c0.952,0,1.802,0.469,2.373,1.245v-1.069h1.098v6.87c0,2.344-1.641,3.076-3.369,3.076
				C206.237,477.361,205.417,477.126,204.582,476.306z M209.709,472.454v-3.091c-0.381-0.615-1.23-1.143-2.109-1.143
				c-1.421,0-2.27,1.128-2.27,2.695c0,1.553,0.849,2.695,2.27,2.695C208.478,473.611,209.328,473.069,209.709,472.454z"/>
			<path style="fill:#252A30;" d="M217.413,474.49v-4.629c0-1.245-0.63-1.64-1.582-1.64c-0.865,0-1.685,0.527-2.095,1.099v5.17
				h-1.099v-7.075h1.099v1.025c0.498-0.586,1.464-1.201,2.519-1.201c1.48,0,2.256,0.747,2.256,2.285v4.966H217.413z"/>
			<path style="fill:#252A30;" d="M219.932,470.945c0-2.051,1.465-3.706,3.486-3.706c2.139,0,3.398,1.67,3.398,3.794v0.279h-5.727
				c0.088,1.333,1.025,2.446,2.549,2.446c0.806,0,1.626-0.322,2.183-0.893l0.527,0.718c-0.703,0.703-1.655,1.084-2.812,1.084
				C221.441,474.665,219.932,473.157,219.932,470.945z M223.404,468.147c-1.509,0-2.256,1.274-2.314,2.358h4.643
				C225.718,469.451,225.015,468.147,223.404,468.147z"/>
			<path style="fill:#252A30;" d="M233.35,474.49v-1.055c-0.527,0.718-1.392,1.23-2.388,1.23c-1.846,0-3.149-1.406-3.149-3.706
				c0-2.256,1.289-3.721,3.149-3.721c0.952,0,1.817,0.469,2.388,1.245v-3.765h1.098v9.77H233.35z M233.35,472.571v-3.208
				c-0.396-0.615-1.245-1.143-2.124-1.143c-1.421,0-2.27,1.172-2.27,2.739c0,1.567,0.849,2.724,2.27,2.724
				C232.105,473.684,232.954,473.186,233.35,472.571z"/>
			<path style="fill:#252A30;" d="M239.692,474.49v-9.77h1.098v3.765c0.572-0.776,1.421-1.245,2.388-1.245
				c1.845,0,3.149,1.465,3.149,3.721c0,2.299-1.304,3.706-3.149,3.706c-0.996,0-1.86-0.513-2.388-1.23v1.055H239.692z
				 M242.9,473.684c1.436,0,2.285-1.157,2.285-2.724c0-1.568-0.85-2.739-2.285-2.739c-0.864,0-1.728,0.527-2.109,1.143v3.208
				C241.171,473.186,242.036,473.684,242.9,473.684z"/>
			<path style="fill:#252A30;" d="M247.528,476.262c0.161,0.073,0.425,0.117,0.601,0.117c0.483,0,0.805-0.161,1.055-0.747
				l0.469-1.069l-2.959-7.148h1.187l2.358,5.801l2.344-5.801h1.201l-3.545,8.51c-0.425,1.025-1.143,1.421-2.08,1.435
				c-0.234,0-0.601-0.044-0.805-0.103L247.528,476.262z"/>
		</g>
	</g>
</g>
</svg>
