<svg width="34" height="31" viewBox="0 0 34 31" fill="none" xmlns="http://www.w3.org/2000/svg">
<path fill-rule="evenodd" clip-rule="evenodd" d="M24.1602 30.3302H18.2604L15.3288 25.4587L15.2231 25.2832L20.17 25.3209L20.2794 25.4587L24.1602 30.3302Z" fill="white"/>
<path fill-rule="evenodd" clip-rule="evenodd" d="M18.0112 22.6088L13.5919 22.5766L12.5938 20.9197L9.51709 15.8083L12.4229 15.5933L16.6649 20.9197L18.0112 22.6088Z" fill="white"/>
<path fill-rule="evenodd" clip-rule="evenodd" d="M7.21301 9.05469L5.49268 9.12269L8.58137 14.2524L11.2676 14.1449L7.21301 9.05469Z" fill="white"/>
<path fill-rule="evenodd" clip-rule="evenodd" d="M3.44138 4.32031L2.65381 4.40853L4.92737 8.18371L6.41796 8.05781L3.44138 4.32031Z" fill="white"/>
<path fill-rule="evenodd" clip-rule="evenodd" d="M0 0L2.82954 3.55186L2.19361 3.64376L0 0Z" fill="white"/>
<path fill-rule="evenodd" clip-rule="evenodd" d="M30.4165 26.7518C29.7732 26.1113 29.2622 25.6059 28.8744 25.2392C28.4894 24.8716 28.1429 24.5693 27.8314 24.3312C28.5803 24.1842 29.2558 23.9315 29.8522 23.5758C30.4486 23.2174 30.9513 22.7828 31.3649 22.2681C31.7766 21.7544 32.0936 21.1755 32.3142 20.5349C32.5347 19.8916 32.6432 19.2125 32.6432 18.4994C32.6432 17.177 32.3463 16.0962 31.7499 15.2526C31.1535 14.4099 30.3981 13.74 29.4791 13.2428C28.5629 12.7466 27.5456 12.4029 26.4263 12.2117C25.3069 12.0178 24.2262 11.9204 23.1795 11.9204H12.6866L6.03223 5.05469L11.4763 11.9204L15.2717 16.7092H17.3283H23.6473C24.637 16.7092 25.4071 16.8884 25.9594 17.2468C26.509 17.6025 26.7847 18.1401 26.7847 18.8541C26.7847 19.4974 26.4823 20.0028 25.8767 20.3668C25.2711 20.7343 24.5286 20.9191 23.6473 20.9191H18.6232L25.057 28.9951L25.0744 29.0153L26.179 30.3285H33.8002L30.4165 26.7518Z" fill="white"/>
<path fill-rule="evenodd" clip-rule="evenodd" d="M5.77587 20.9199V30.3303H11.469V25.4588H13.3814L10.6115 20.9199L0.484375 4.32129L5.77587 14.5036V20.9199Z" fill="white"/>
</svg>
