<svg width="50" height="50" viewBox="0 0 50 50" fill="none" xmlns="http://www.w3.org/2000/svg">
<rect width="50" height="50" rx="25" fill="#1E6BB3"/>
<path fill-rule="evenodd" clip-rule="evenodd" d="M32.1602 40.3302H26.2604L23.3288 35.4587L23.2231 35.2832L28.17 35.3209L28.2794 35.4587L32.1602 40.3302Z" fill="white"/>
<path fill-rule="evenodd" clip-rule="evenodd" d="M26.0112 32.6088L21.5919 32.5766L20.5938 30.9197L17.5171 25.8083L20.4229 25.5933L24.6649 30.9197L26.0112 32.6088Z" fill="white"/>
<path fill-rule="evenodd" clip-rule="evenodd" d="M15.213 19.0547L13.4927 19.1227L16.5814 24.2524L19.2676 24.1449L15.213 19.0547Z" fill="white"/>
<path fill-rule="evenodd" clip-rule="evenodd" d="M11.4414 14.3203L10.6538 14.4085L12.9274 18.1837L14.418 18.0578L11.4414 14.3203Z" fill="white"/>
<path fill-rule="evenodd" clip-rule="evenodd" d="M8 10L10.8295 13.5519L10.1936 13.6438L8 10Z" fill="white"/>
<path fill-rule="evenodd" clip-rule="evenodd" d="M38.4165 36.7518C37.7732 36.1113 37.2622 35.6059 36.8744 35.2392C36.4894 34.8716 36.1429 34.5693 35.8314 34.3312C36.5803 34.1842 37.2558 33.9315 37.8522 33.5758C38.4486 33.2174 38.9513 32.7828 39.3649 32.2681C39.7766 31.7544 40.0936 31.1755 40.3142 30.5349C40.5347 29.8916 40.6432 29.2125 40.6432 28.4994C40.6432 27.177 40.3463 26.0962 39.7499 25.2526C39.1535 24.4099 38.3981 23.74 37.4791 23.2428C36.5629 22.7466 35.5456 22.4029 34.4263 22.2117C33.3069 22.0178 32.2262 21.9204 31.1795 21.9204H20.6866L14.0322 15.0547L19.4763 21.9204L23.2717 26.7092H25.3283H31.6473C32.637 26.7092 33.4071 26.8884 33.9594 27.2468C34.509 27.6025 34.7847 28.1401 34.7847 28.8541C34.7847 29.4974 34.4823 30.0028 33.8767 30.3668C33.2711 30.7343 32.5286 30.9191 31.6473 30.9191H26.6232L33.057 38.9951L33.0744 39.0153L34.179 40.3285H41.8002L38.4165 36.7518Z" fill="white"/>
<path fill-rule="evenodd" clip-rule="evenodd" d="M13.7759 30.9199V40.3303H19.469V35.4588H21.3814L18.6115 30.9199L8.48438 14.3213L13.7759 24.5036V30.9199Z" fill="white"/>
</svg>
